<?xml version="1.0" encoding="UTF-8" standalone="no"?>
<svg width="768px" height="1365px" viewBox="0 0 768 1365" version="1.1" xmlns="http://www.w3.org/2000/svg" xmlns:xlink="http://www.w3.org/1999/xlink">
    <!-- Generator: Sketch 46.2 (44496) - http://www.bohemiancoding.com/sketch -->
    <title>Export</title>
    <desc>Created with Sketch.</desc>
    <defs></defs>
    <g id="E-vite-+-Itenerary" stroke="none" stroke-width="1" fill="none" fill-rule="evenodd" stroke-linecap="round">
        <g id="Export" stroke-width="2" stroke="#FBD2CB">
            <g id="Lights-A" transform="translate(7.000000, 348.000000)">
                <g id="XMLID_947_">
                    <g id="Group">
                        <path d="M0.328057851,0.587458453 C0.328057851,0.699068875 0.32946281,0.810010972 0.331570248,0.920284743" id="Shape"></path>
                        <path d="M0.736900826,4.26057751 C6.85900826,31.40196 79.813595,41.2263505 83.5655372,66.1562427" id="Shape" stroke-dasharray="1.0075,5.0375"></path>
                        <path d="M83.7109504,67.8317357 C83.7137603,67.9426778 83.7151653,68.0536198 83.7151653,68.1645619" id="Shape"></path>
                    </g>
                </g>
                <g id="XMLID_945_" transform="translate(0.000000, 110.273771)">
                    <g id="Group">
                        <path d="M0.328057851,0.183789618 C0.328057851,0.294731715 0.32946281,0.405673812 0.331570248,0.516615909" id="Shape"></path>
                        <path d="M0.736900826,3.85624035 C6.85900826,30.9982912 79.813595,40.8220134 83.5655372,65.7525738" id="Shape" stroke-dasharray="1.0075,5.0375"></path>
                        <path d="M83.7109504,67.4280668 C83.7137603,67.5390089 83.7151653,67.649951 83.7151653,67.7608931" id="Shape"></path>
                    </g>
                </g>
                <g id="XMLID_923_" transform="translate(0.000000, 219.879216)">
                    <g id="Group">
                        <path d="M0.328057851,0.447778343 C0.328057851,0.559388765 0.32946281,0.670330862 0.331570248,0.780604633" id="Shape"></path>
                        <path d="M0.736900826,4.1208974 C6.85900826,31.2629482 79.813595,41.0866704 83.5655372,66.0172309" id="Shape" stroke-dasharray="1.0075,5.0375"></path>
                        <path d="M83.7109504,67.6920555 C83.7137603,67.8029976 83.7151653,67.9139397 83.7151653,68.0248818" id="Shape"></path>
                    </g>
                </g>
                <g id="XMLID_921_" transform="translate(0.000000, 330.152987)">
                    <g id="Group">
                        <path d="M0.328057851,0.0441095084 C0.328057851,0.155719931 0.32946281,0.266662028 0.331570248,0.376935799" id="Shape"></path>
                        <path d="M0.736900826,3.71656024 C6.85900826,30.8586111 79.813595,40.6823332 83.5655372,65.6128937" id="Shape" stroke-dasharray="1.0075,5.0375"></path>
                        <path d="M83.7109504,67.2883867 C83.7137603,67.3993288 83.7151653,67.5102709 83.7151653,67.621213" id="Shape"></path>
                    </g>
                </g>
                <g id="XMLID_919_" transform="translate(0.000000, 439.758432)">
                    <g id="Group">
                        <path d="M0.328057851,0.308766559 C0.328057851,0.419708656 0.32946281,0.530650752 0.331570248,0.641592849" id="Shape"></path>
                        <path d="M0.736900826,3.98121729 C6.85900826,31.1232681 79.813595,40.9469903 83.5655372,65.8775508" id="Shape" stroke-dasharray="1.0075,5.0375"></path>
                        <path d="M83.7109504,67.5523754 C83.7137603,67.6633175 83.7151653,67.7742596 83.7151653,67.8852017" id="Shape"></path>
                    </g>
                </g>
                <g id="XMLID_908_" transform="translate(0.000000, 659.637648)">
                    <g id="Group">
                        <path d="M0.328057851,0.169086449 C0.328057851,0.280028546 0.32946281,0.390970642 0.331570248,0.501912739" id="Shape"></path>
                        <path d="M0.736900826,3.84153718 C6.85900826,30.983588 79.813595,40.8073102 83.5655372,65.7378707" id="Shape" stroke-dasharray="1.0075,5.0375"></path>
                        <path d="M83.7109504,67.4133636 C83.7137603,67.5243057 83.7151653,67.6352478 83.7151653,67.7461899" id="Shape"></path>
                    </g>
                </g>
                <g id="XMLID_95_" transform="translate(0.000000, 765.233138)">
                    <g id="Group">
                        <path d="M0.328057851,0.169086449 C0.328057851,0.280028546 0.32946281,0.390970642 0.331570248,0.501912739" id="Shape"></path>
                        <path d="M0.736900826,3.84153718 C6.85900826,30.983588 79.813595,40.8073102 83.5655372,65.7378707" id="Shape" stroke-dasharray="1.0075,5.0375"></path>
                        <path d="M83.7109504,67.4133636 C83.7137603,67.5243057 83.7151653,67.6352478 83.7151653,67.7461899" id="Shape"></path>
                    </g>
                </g>
                <g id="XMLID_88_" transform="translate(0.000000, 870.828628)">
                    <g id="Group">
                        <path d="M0.328057851,0.169086449 C0.328057851,0.280028546 0.32946281,0.390970642 0.331570248,0.501912739" id="Shape"></path>
                        <path d="M0.736900826,3.84153718 C6.85900826,30.983588 79.813595,40.8073102 83.5655372,65.7378707" id="Shape" stroke-dasharray="1.0075,5.0375"></path>
                        <path d="M83.7109504,67.4133636 C83.7137603,67.5243057 83.7151653,67.6352478 83.7151653,67.7461899" id="Shape"></path>
                    </g>
                </g>
                <g id="XMLID_76_" transform="translate(0.000000, 549.363877)">
                    <g id="Group">
                        <path d="M0.328057851,0.572755283 C0.328057851,0.684365706 0.32946281,0.795307803 0.331570248,0.905581574" id="Shape"></path>
                        <path d="M0.736900826,4.24520602 C6.85900826,31.3872568 79.813595,41.210979 83.5655372,66.1415395" id="Shape" stroke-dasharray="1.0075,5.0375"></path>
                        <path d="M83.7109504,67.8170325 C83.7137603,67.9279746 83.7151653,68.0389167 83.7151653,68.1498588" id="Shape"></path>
                    </g>
                </g>
            </g>
        </g>
    </g>
</svg>