<?xml version="1.0" encoding="UTF-8" standalone="no"?>
<svg width="768px" height="1365px" viewBox="0 0 768 1365" version="1.1" xmlns="http://www.w3.org/2000/svg" xmlns:xlink="http://www.w3.org/1999/xlink">
    <!-- Generator: Sketch 46.2 (44496) - http://www.bohemiancoding.com/sketch -->
    <title>Export</title>
    <desc>Created with Sketch.</desc>
    <defs>
        <linearGradient x1="63.2450342%" y1="4.3870355%" x2="40.9327303%" y2="127.960876%" id="linearGradient-1">
            <stop stop-color="#E86365" stop-opacity="0.6" offset="0%"></stop>
            <stop stop-color="#A14B5E" stop-opacity="0" offset="59.0257646%"></stop>
            <stop stop-color="#6D4059" stop-opacity="0" offset="100%"></stop>
        </linearGradient>
        <linearGradient x1="51.3236567%" y1="-0.369770599%" x2="48.6773174%" y2="100.336674%" id="linearGradient-2">
            <stop stop-color="#6D4059" offset="0%"></stop>
            <stop stop-color="#A14B5E" offset="49.89%"></stop>
            <stop stop-color="#E86365" stop-opacity="0.6" offset="97.43%"></stop>
        </linearGradient>
        <linearGradient x1="51.365768%" y1="-0.34905744%" x2="48.6344217%" y2="100.333235%" id="linearGradient-3">
            <stop stop-color="#6D4059" offset="0%"></stop>
            <stop stop-color="#A14B5E" offset="49.89%"></stop>
            <stop stop-color="#E86365" stop-opacity="0.6" offset="97.43%"></stop>
        </linearGradient>
        <linearGradient x1="51.4110434%" y1="-0.328348968%" x2="48.5890938%" y2="100.329792%" id="linearGradient-4">
            <stop stop-color="#6D4059" offset="0%"></stop>
            <stop stop-color="#A14B5E" offset="49.89%"></stop>
            <stop stop-color="#E86365" stop-opacity="0.6" offset="97.43%"></stop>
        </linearGradient>
        <linearGradient x1="51.4591861%" y1="-0.307603055%" x2="48.5403882%" y2="100.326361%" id="linearGradient-5">
            <stop stop-color="#6D4059" offset="0%"></stop>
            <stop stop-color="#A14B5E" offset="49.89%"></stop>
            <stop stop-color="#E86365" stop-opacity="0.6" offset="97.43%"></stop>
        </linearGradient>
        <linearGradient x1="51.5106036%" y1="-0.286972291%" x2="48.4880528%" y2="100.322926%" id="linearGradient-6">
            <stop stop-color="#6D4059" offset="0%"></stop>
            <stop stop-color="#A14B5E" offset="49.89%"></stop>
            <stop stop-color="#E86365" stop-opacity="0.6" offset="97.43%"></stop>
        </linearGradient>
        <linearGradient x1="51.5661371%" y1="-0.266246254%" x2="48.4322086%" y2="100.319493%" id="linearGradient-7">
            <stop stop-color="#6D4059" offset="0%"></stop>
            <stop stop-color="#A14B5E" offset="49.89%"></stop>
            <stop stop-color="#E86365" stop-opacity="0.6" offset="97.43%"></stop>
        </linearGradient>
        <linearGradient x1="51.6257842%" y1="-0.245582714%" x2="48.3719558%" y2="100.316067%" id="linearGradient-8">
            <stop stop-color="#6D4059" offset="0%"></stop>
            <stop stop-color="#A14B5E" offset="49.89%"></stop>
            <stop stop-color="#E86365" stop-opacity="0.6" offset="97.43%"></stop>
        </linearGradient>
        <linearGradient x1="51.6901964%" y1="-0.224929071%" x2="48.3069367%" y2="100.312638%" id="linearGradient-9">
            <stop stop-color="#6D4059" offset="0%"></stop>
            <stop stop-color="#A14B5E" offset="49.89%"></stop>
            <stop stop-color="#E86365" stop-opacity="0.6" offset="97.43%"></stop>
        </linearGradient>
    </defs>
    <g id="E-vite-+-Itenerary" stroke="none" stroke-width="1" fill="none" fill-rule="evenodd">
        <g id="Export" fill-rule="nonzero">
            <g id="Frame-01-B" transform="translate(381.000000, -56.000000)" fill="url(#linearGradient-1)">
                <g id="Bottom">
                    <path d="M324.093161,217.560189 C299.392237,217.560189 267.380407,208.921134 228.625508,198.482277 C167.582994,182.068073 91.5637708,161.622311 0.141959335,161.622311 L0.141959335,158.742626 C91.9896488,158.742626 168.150832,179.26038 229.406285,195.746576 C290.16488,212.088788 334.030314,223.895495 358.092421,205.105552 C373.42403,193.15486 380.592976,168.965507 380.592976,129.081872 L380.592976,0.431952724 L383.432163,0.431952724 L383.432163,129.081872 C383.432163,169.901405 375.908318,194.810679 359.866913,207.337308 C350.426617,214.608512 338.502033,217.560189 324.093161,217.560189 Z" id="Shape"></path>
                    <path d="M314.723845,213.672614 C291.016636,213.672614 260.35342,205.753481 223.231054,196.106537 C164.034011,180.772215 90.3571165,161.694303 0.851756007,161.694303 L0.851756007,158.814618 C90.7829945,158.814618 164.601848,177.964522 223.94085,193.370836 C282.641035,208.561174 325.086876,219.575968 348.155268,201.433954 C362.7061,189.987206 369.520148,167.02172 369.520148,129.153864 L369.520148,0.503944845 L372.359335,0.503944845 L372.359335,129.153864 C372.359335,167.957618 365.190388,191.643025 349.92976,203.665709 C340.773383,210.792929 328.990758,213.672614 314.723845,213.672614 Z" id="Shape"></path>
                    <path d="M305.354529,209.78504 C282.641035,209.78504 253.255453,202.513835 217.765619,193.658805 C160.485028,179.404365 89.1504621,161.694303 1.56155268,161.694303 L1.56155268,158.814618 C89.5053604,158.814618 160.981885,176.596672 218.475416,190.851112 C275.18817,204.961568 316.214418,215.112457 338.218115,197.618371 C351.98817,186.603577 358.44732,164.861956 358.44732,129.081872 L358.44732,0.431952724 L361.286506,0.431952724 L361.286506,129.081872 C361.286506,165.797854 354.543438,188.331388 339.992606,199.922119 C331.049168,206.905355 319.479482,209.78504 305.354529,209.78504 Z" id="Shape"></path>
                    <path d="M295.985213,205.825473 C274.194455,205.825473 246.086506,199.130206 212.300185,191.13908 C156.865065,177.964522 87.9438078,161.622311 2.34232902,161.622311 L2.34232902,158.742626 C88.2987061,158.742626 157.432902,175.15683 212.939002,188.331388 C267.735305,201.361962 307.341959,210.720937 328.280961,193.874781 C341.34122,183.363931 347.374492,162.774185 347.374492,129.081872 L347.374492,0.431952724 L350.213678,0.431952724 L350.213678,129.081872 C350.213678,163.782075 343.825508,185.091742 330.055453,196.178529 C321.395933,203.089772 309.968207,205.825473 295.985213,205.825473 Z" id="Shape"></path>
                    <path d="M286.615896,202.081883 C266.244732,202.081883 239.769316,196.106537 206.621811,188.691348 C153.103142,176.668664 86.5242144,161.694303 2.98114603,161.694303 L2.98114603,158.814618 C86.8081331,158.814618 153.6,173.860971 207.189649,185.883656 C262.056932,198.2663 298.327542,206.40141 318.272828,190.203183 C330.552311,180.196278 336.230684,160.830398 336.230684,129.081872 L336.230684,0.431952724 L339.069871,0.431952724 L339.069871,129.081872 C339.069871,161.694303 333.036599,181.852097 320.04732,192.434939 C311.600739,199.346182 300.527911,202.081883 286.615896,202.081883 Z" id="Shape"></path>
                    <path d="M277.033641,198.194308 C257.514233,198.194308 232.316451,192.866891 200.872458,186.171624 C149.34122,175.228822 85.1756007,161.622311 3.76192237,161.622311 L3.76192237,158.742626 C85.4595194,158.742626 152.535305,172.925074 201.440296,183.363931 C254.462107,194.594702 289.455083,202.009891 308.335675,186.459593 C319.834381,176.956633 325.228835,158.742626 325.228835,129.081872 L325.228835,0.431952724 L328.068022,0.431952724 L328.068022,129.081872 C328.068022,159.678524 322.389649,178.612451 310.181146,188.691348 C301.876525,195.5306 290.874677,198.194308 277.033641,198.194308 Z" id="Shape"></path>
                    <path d="M267.380407,194.378726 C248.783734,194.378726 224.721627,189.627246 194.910166,183.723892 C147.921627,174.436908 83.6140481,161.694303 4.40073937,161.694303 L4.40073937,158.814618 C83.8269871,158.814618 148.347505,171.557224 195.407024,180.916199 C246.583364,191.067088 280.440665,197.762356 298.327542,182.787994 C309.045471,173.788979 314.085028,156.726847 314.085028,129.153864 L314.085028,0.503944845 L316.924214,0.503944845 C316.924214,40.03931 316.924214,69.6908338 316.924214,89.4585164 C316.924214,98.2797048 316.924214,111.511488 316.924214,129.153864 C316.924214,157.734736 311.600739,175.444798 300.173013,185.01975 C292.152311,191.715017 281.292421,194.378726 267.380407,194.378726 Z" id="Shape"></path>
                    <path d="M257.585213,190.491151 C239.840296,190.491151 216.984843,186.315608 188.805915,181.204168 C143.733826,172.997066 81.9815157,161.694303 5.18151571,161.694303 L5.18151571,158.814618 C82.1944547,158.814618 144.088725,170.117381 189.302773,178.396475 C238.84658,187.467482 271.497227,193.442828 288.461368,179.116396 C298.469501,170.621326 303.083179,154.783059 303.083179,129.153864 L303.083179,0.503944845 L305.922366,0.503944845 L305.922366,129.153864 C305.922366,155.646965 300.953789,172.277145 290.23586,181.27616 C282.428096,187.899435 271.568207,190.491151 257.585213,190.491151 Z" id="Shape"></path>
                </g>
            </g>
            <g id="Pillar-B" transform="translate(380.000000, 53.000000)">
                <path d="M384.792688,1313.49366 L381.981679,1313.49366 L381.981679,283.519571 C381.981679,214.663155 354.81187,164.5109 298.920574,130.195319 C250.408178,100.410232 188.152055,87.1175318 133.224233,75.3889143 C98.1920312,67.9087207 65.1036422,60.844279 41.4391615,50.4785528 C14.8406899,38.8281395 2.45257248,24.1030331 2.45257248,4.13891695 L5.26358165,4.13891695 C5.26358165,22.9353181 17.1323651,36.8884092 42.6148661,48.0502136 C66.0094899,58.297631 98.9566257,65.3319942 133.839844,72.7807725 C188.996061,84.5581839 251.512202,97.9063626 300.444844,127.949456 C357.20193,162.796424 384.792688,213.683932 384.792688,283.520239 L384.792688,1313.49366 Z" id="Shape" fill="url(#linearGradient-2)"></path>
                <path d="M372.854332,1313.49366 L370.043323,1313.49366 L370.043323,285.900453 C370.043323,136.539213 237.299739,104.256941 130.638807,78.3178937 C96.3220073,69.9727756 63.9082606,62.0901982 40.6815945,51.1282488 C14.5715358,38.8060819 2.41111009,23.7775166 2.41111009,3.83345288 L5.22211927,3.83345288 C5.22211927,22.6465643 16.8871046,36.9131404 41.9310881,48.7333302 C64.8921138,59.5696182 97.1667156,67.418775 131.335235,75.7284674 C184.523745,88.6635677 244.808648,103.324507 291.84667,133.644991 C346.356354,168.781381 372.854332,218.585394 372.854332,285.901121 L372.854332,1313.49366 Z" id="Shape" fill="url(#linearGradient-3)"></path>
                <path d="M358.103561,1313.49366 L358.103561,288.281334 C358.103561,144.557478 230.528018,109.502635 128.01965,81.3357719 C94.4273872,72.1056768 62.6974183,63.3869166 39.9134862,51.8113654 C14.2981651,38.7973925 2.36753945,23.4553423 2.36753945,3.5279888 L5.17854862,3.5279888 C5.17854862,22.361821 16.636222,36.9545819 41.2374716,49.4532094 C63.7606826,60.8964151 95.3529119,69.5770759 128.799002,78.7670663 C180.021211,92.8418083 238.078389,108.794118 283.229521,139.370605 C335.503048,174.76968 360.913868,223.479503 360.913868,288.281334 L360.913868,1313.49366 L358.103561,1313.49366 Z" id="Shape" fill="url(#linearGradient-4)"></path>
                <path d="M346.164503,1313.49366 L346.164503,290.662216 C346.164503,152.555691 223.738026,114.791775 125.36676,84.447896 C92.5081706,74.3121033 61.4711156,64.7384447 39.1362422,52.5312446 C14.0226862,38.8047451 2.32537431,23.13651 2.32537431,3.22185631 L5.13638349,3.22185631 C5.13638349,22.0804197 16.3853394,37.0120653 40.5368275,50.212525 C62.6166018,62.2806955 93.5180257,71.8129125 126.233253,81.9045901 C225.47031,112.515834 348.974809,150.612618 348.974809,290.662216 L348.974809,1313.49366 L346.164503,1313.49366 Z" id="Shape" fill="url(#linearGradient-5)"></path>
                <path d="M334.225444,1313.49366 L334.225444,293.043767 C334.225444,234.119947 311.321341,188.319051 264.203908,153.023579 C223.156147,122.274642 169.77438,103.885972 122.676624,87.6616188 C58.0754165,65.4075247 2.28391193,46.1886874 2.28391193,2.91706064 L5.0949211,2.91706064 C5.0949211,21.8057026 16.1316459,37.089601 39.8270477,51.0166241 C61.4591688,63.7298117 91.6606514,74.1336374 123.635178,85.1483913 C218.711941,117.900557 337.037156,158.660962 337.037156,293.044435 L337.037156,1313.49366 L334.225444,1313.49366 Z" id="Shape" fill="url(#linearGradient-6)"></path>
                <path d="M325.097394,1313.49366 L322.286385,1313.49366 L322.286385,295.424649 C322.286385,238.963925 300.432194,194.27794 255.475725,158.811354 C216.269877,127.881947 165.098266,108.279441 119.949945,90.9842926 C56.7886771,66.7891314 2.24104404,45.8939179 2.24104404,2.61092815 L5.05205321,2.61092815 C5.05205321,21.5349959 15.873033,37.1865207 39.1060239,51.8655067 C60.2827615,65.2457691 89.775167,76.5432611 120.999154,88.5044857 C166.337921,105.872491 217.726683,125.55788 257.269851,156.753315 C302.910802,192.759309 325.097394,238.119053 325.097394,295.424649 L325.097394,1313.49366 Z" id="Shape" fill="url(#linearGradient-7)"></path>
                <path d="M313.158336,1313.49366 L310.347327,1313.49366 L310.347327,297.805531 C310.347327,243.799214 289.536723,200.238834 246.725053,164.635893 C209.349875,133.553419 160.383501,112.765151 117.180398,94.4239384 C55.4829633,68.2315635 2.1988789,45.6105115 2.1988789,2.30546408 L5.00988807,2.30546408 C5.00988807,43.8759835 57.5223505,66.1688454 118.326587,91.9828994 C161.710297,110.40098 210.882578,131.276141 248.5754,162.623305 C292.032899,198.764318 313.158336,242.983084 313.158336,297.805531 L313.158336,1313.49366 Z" id="Shape" fill="url(#linearGradient-8)"></path>
                <path d="M298.408268,1313.49366 L298.408268,300.186413 C298.408268,248.625146 278.632818,206.204407 237.951894,170.499867 C202.396141,139.293737 155.629382,117.350454 114.368686,97.9905824 C54.1568697,69.7388315 2.15601101,45.3398048 2.15601101,2 L4.96702018,2 C4.96702018,43.6774653 56.241233,67.7356021 115.611152,95.5923218 C157.043319,115.032403 204.003336,137.06659 239.857758,168.534737 C281.147266,204.774006 301.218574,247.837088 301.218574,300.186413 L301.218574,1313.49366 L298.408268,1313.49366 Z" id="Shape" fill="url(#linearGradient-9)"></path>
                <path d="M296.601117,274.964019 C320.602146,279.02418 360.373529,279.536013 385.641737,274.964019 C387.970416,278.602464 388.962887,286.619998 385.642442,291.701712 C376.415774,295.033903 321.731266,296.232872 298.520551,291.75029 C295.017672,290.628061 292.879175,280.489274 296.601117,274.964019 Z" id="XMLID_8202_" fill="#81455B"></path>
                <ellipse id="XMLID_87_" fill="#6D4059" cx="3.95954963" cy="3.5" rx="3.48857537" ry="3.5"></ellipse>
            </g>
        </g>
    </g>
</svg>