<?xml version="1.0" encoding="UTF-8" standalone="no"?>
<svg width="768px" height="1365px" viewBox="0 0 768 1365" version="1.1" xmlns="http://www.w3.org/2000/svg" xmlns:xlink="http://www.w3.org/1999/xlink">
    <!-- Generator: Sketch 46.2 (44496) - http://www.bohemiancoding.com/sketch -->
    <title>Export</title>
    <desc>Created with Sketch.</desc>
    <defs>
        <linearGradient x1="46.3547516%" y1="5.34152848%" x2="73.7882376%" y2="96.3534497%" id="linearGradient-1">
            <stop stop-color="#E86365" stop-opacity="0.6" offset="0%"></stop>
            <stop stop-color="#A14B5E" stop-opacity="0" offset="59.0257646%"></stop>
            <stop stop-color="#6D4059" stop-opacity="0" offset="100%"></stop>
        </linearGradient>
        <linearGradient x1="48.6763249%" y1="-0.369770599%" x2="51.3226826%" y2="100.336674%" id="linearGradient-2">
            <stop stop-color="#6D4059" offset="0%"></stop>
            <stop stop-color="#A14B5E" offset="49.89%"></stop>
            <stop stop-color="#E86365" stop-opacity="0.6" offset="97.43%"></stop>
        </linearGradient>
        <linearGradient x1="48.6341208%" y1="-0.34905744%" x2="51.3654808%" y2="100.333235%" id="linearGradient-3">
            <stop stop-color="#6D4059" offset="0%"></stop>
            <stop stop-color="#A14B5E" offset="49.89%"></stop>
            <stop stop-color="#E86365" stop-opacity="0.6" offset="97.43%"></stop>
        </linearGradient>
        <linearGradient x1="48.588937%" y1="-0.328348968%" x2="51.4109062%" y2="100.329792%" id="linearGradient-4">
            <stop stop-color="#6D4059" offset="0%"></stop>
            <stop stop-color="#A14B5E" offset="49.89%"></stop>
            <stop stop-color="#E86365" stop-opacity="0.6" offset="97.43%"></stop>
        </linearGradient>
        <linearGradient x1="48.5407734%" y1="-0.307603055%" x2="51.4596118%" y2="100.326361%" id="linearGradient-5">
            <stop stop-color="#6D4059" offset="0%"></stop>
            <stop stop-color="#A14B5E" offset="49.89%"></stop>
            <stop stop-color="#E86365" stop-opacity="0.6" offset="97.43%"></stop>
        </linearGradient>
        <linearGradient x1="48.4893754%" y1="-0.286972291%" x2="51.5119262%" y2="100.322926%" id="linearGradient-6">
            <stop stop-color="#6D4059" offset="0%"></stop>
            <stop stop-color="#A14B5E" offset="49.89%"></stop>
            <stop stop-color="#E86365" stop-opacity="0.6" offset="97.43%"></stop>
        </linearGradient>
        <linearGradient x1="48.4339752%" y1="-0.266246254%" x2="51.567875%" y2="100.319493%" id="linearGradient-7">
            <stop stop-color="#6D4059" offset="0%"></stop>
            <stop stop-color="#A14B5E" offset="49.89%"></stop>
            <stop stop-color="#E86365" stop-opacity="0.6" offset="97.43%"></stop>
        </linearGradient>
        <linearGradient x1="48.3741932%" y1="-0.245582714%" x2="51.6280216%" y2="100.316067%" id="linearGradient-8">
            <stop stop-color="#6D4059" offset="0%"></stop>
            <stop stop-color="#A14B5E" offset="49.89%"></stop>
            <stop stop-color="#E86365" stop-opacity="0.6" offset="97.43%"></stop>
        </linearGradient>
        <linearGradient x1="48.3098036%" y1="-0.224929071%" x2="51.6930398%" y2="100.312638%" id="linearGradient-9">
            <stop stop-color="#6D4059" offset="0%"></stop>
            <stop stop-color="#A14B5E" offset="49.89%"></stop>
            <stop stop-color="#E86365" stop-opacity="0.6" offset="97.43%"></stop>
        </linearGradient>
    </defs>
    <g id="E-vite-+-Itenerary" stroke="none" stroke-width="1" fill="none" fill-rule="evenodd">
        <g id="Export" fill-rule="nonzero">
            <g id="Frame-01-A" transform="translate(3.000000, -56.000000)" fill="url(#linearGradient-1)">
                <g id="Bottom">
                    <path d="M59.6229205,217.560189 C45.1430684,217.560189 33.2184843,214.608512 23.9201479,207.337308 C7.8077634,194.810679 0.354898336,169.901405 0.354898336,129.081872 L0.354898336,0.431952724 L3.19408503,0.431952724 L3.19408503,129.081872 C3.19408503,168.965507 10.3630314,193.082868 25.6946396,205.105552 C49.8277264,223.895495 93.6931608,212.088788 154.380776,195.746576 C215.636229,179.26038 291.797412,158.742626 383.645102,158.742626 L383.645102,161.622311 C292.22329,161.622311 216.204067,182.068073 155.161553,198.482277 C116.264695,208.993126 84.2528651,217.560189 59.6229205,217.560189 Z" id="Shape"></path>
                    <path d="M68.9212569,213.672614 C54.6543438,213.672614 42.871719,210.792929 33.8573013,203.665709 C18.5256932,191.571033 11.4277264,167.885625 11.4277264,129.153864 L11.4277264,0.503944845 L14.2669131,0.503944845 L14.2669131,129.153864 C14.2669131,166.949728 21.0809612,189.915214 35.631793,201.433954 C58.7001848,219.575968 101.075046,208.561174 159.846211,193.370836 C219.185213,177.964522 293.075046,158.814618 382.935305,158.814618 L382.935305,161.694303 C293.429945,161.694303 219.75305,180.772215 160.556007,196.106537 C123.291682,205.681489 92.6284658,213.672614 68.9212569,213.672614 Z" id="Shape"></path>
                    <path d="M78.290573,209.78504 C64.1656192,209.78504 52.5959335,206.977347 43.723475,199.922119 C29.1726433,188.331388 22.4295749,165.869846 22.4295749,129.081872 L22.4295749,0.431952724 L25.2687616,0.431952724 L25.2687616,129.081872 C25.2687616,164.861956 31.7279113,186.675569 45.4979667,197.618371 C67.5016636,215.112457 108.456932,204.961568 165.240665,190.851112 C222.734196,176.596672 294.210721,158.814618 382.154529,158.814618 L382.154529,161.694303 C294.565619,161.694303 223.231054,179.404365 165.950462,193.658805 C130.389649,202.441843 101.004067,209.78504 78.290573,209.78504 Z" id="Shape"></path>
                    <path d="M87.7308688,205.825473 C73.6768946,205.825473 62.3201479,203.089772 53.6606285,196.106537 C39.890573,185.01975 33.502403,163.710082 33.502403,129.00988 L33.502403,0.359960603 L36.3415896,0.359960603 L36.3415896,129.00988 C36.3415896,162.774185 42.445841,183.363931 55.4351201,193.802789 C76.374122,210.648945 115.980776,201.289969 170.777079,188.259396 C226.354159,175.084837 295.488355,158.670634 381.373752,158.670634 L381.373752,161.550319 C295.772274,161.550319 226.780037,177.89253 171.415896,191.067088 C137.629575,199.202198 109.521627,205.825473 87.7308688,205.825473 Z" id="Shape"></path>
                    <path d="M97.0292052,202.081883 C83.1171904,202.081883 72.0443623,199.346182 63.5268022,192.434939 C50.5375231,181.852097 44.5042514,161.766295 44.5042514,129.081872 L44.5042514,0.431952724 L47.3434381,0.431952724 L47.3434381,129.081872 C47.3434381,160.758405 53.0218115,180.196278 65.3012939,190.203183 C85.2465804,206.40141 121.446211,198.2663 176.384473,185.883656 C230.045102,173.788979 296.765989,158.814618 380.592976,158.814618 L380.592976,161.694303 C297.049908,161.694303 230.47098,176.668664 176.952311,188.691348 C143.875786,196.178529 117.471349,202.081883 97.0292052,202.081883 Z" id="Shape"></path>
                    <path d="M106.61146,198.194308 C92.7704251,198.194308 81.7685767,195.5306 73.5349353,188.691348 C61.3264325,178.612451 55.6480591,159.678524 55.6480591,129.081872 L55.6480591,0.431952724 L58.4872458,0.431952724 L58.4872458,129.081872 C58.4872458,158.742626 63.8107209,176.956633 75.3804067,186.459593 C94.2609982,202.009891 129.324954,194.594702 182.275786,183.363931 C231.251756,172.997066 298.256562,158.742626 379.954159,158.742626 L379.954159,161.622311 C298.540481,161.622311 234.374861,175.228822 182.843623,186.171624 C151.328651,192.866891 126.130869,198.194308 106.61146,198.194308 Z" id="Shape"></path>
                    <path d="M116.264695,194.378726 C102.42366,194.378726 91.4927911,191.715017 83.4720887,185.01975 C72.0443623,175.444798 66.7208872,157.662744 66.7208872,129.153864 L66.7208872,0.503944845 L69.5600739,0.503944845 L69.5600739,129.153864 C69.5600739,156.798839 74.5996303,173.860971 85.3175601,182.787994 C103.204436,197.762356 137.061738,191.067088 188.238078,180.916199 C235.297597,171.629216 299.818115,158.814618 379.244362,158.814618 L379.244362,161.694303 C300.102033,161.694303 235.723475,174.436908 188.734935,183.723892 C158.923475,189.627246 134.861368,194.378726 116.264695,194.378726 Z" id="Shape"></path>
                    <path d="M126.059889,190.491151 C112.076895,190.491151 101.287985,187.899435 93.3382625,181.204168 C82.6203327,172.133161 77.651756,155.574973 77.651756,129.081872 L77.651756,0.431952724 L80.4909427,0.431952724 L80.4909427,129.081872 C80.4909427,154.711067 85.1756007,170.549334 95.1127542,179.044404 C112.005915,193.370836 144.727542,187.39549 194.271349,178.324483 C239.485397,170.045389 301.308688,158.742626 378.392606,158.742626 L378.392606,161.622311 C301.592606,161.622311 239.840296,172.925074 194.768207,181.132176 C166.660259,186.315608 143.804806,190.491151 126.059889,190.491151 Z" id="Shape"></path>
                </g>
            </g>
            <g id="Pillar-A" transform="translate(0.000000, 53.000000)">
                <path d="M3.17428138,1313.49366 L5.98527139,1313.49366 L5.98527139,283.519571 C5.98527139,214.663155 33.1548953,164.5109 89.0458097,130.195319 C137.557875,100.410232 199.813574,87.1175318 254.741021,75.3889143 C289.772984,67.9087207 322.861148,60.844279 346.525467,50.4785528 C373.123758,38.8281395 385.511791,24.1030331 385.511791,4.13891695 L382.7008,4.13891695 C382.7008,22.9353181 370.832098,36.8884092 345.349771,48.0502136 C321.955306,58.297631 289.008395,65.3319942 254.125415,72.7807725 C198.969574,84.5581839 136.453859,97.9063626 87.5215504,127.949456 C30.7641483,162.795756 3.17428138,213.683264 3.17428138,283.519571 L3.17428138,1313.49366 Z" id="Shape" fill="url(#linearGradient-2)"></path>
                <path d="M15.112556,1313.49366 L17.923546,1313.49366 L17.923546,285.900453 C17.923546,136.539213 150.666225,104.256941 257.32643,78.3178937 C291.642996,69.9727756 324.056521,62.0901982 347.283029,51.1282488 C373.39291,38.8060819 385.553955,23.7775166 385.553955,3.83345288 L382.742965,3.83345288 C382.742965,22.6465643 371.07806,36.9131404 346.034247,48.7333302 C323.073378,59.5696182 290.798996,67.418775 256.630709,75.7284674 C203.442562,88.6635677 143.15807,103.324507 96.1203689,133.644991 C41.6103533,168.780713 15.112556,218.584726 15.112556,285.900453 L15.112556,1313.49366 Z" id="Shape" fill="url(#linearGradient-3)"></path>
                <path d="M27.052236,1313.49366 L29.863226,1313.49366 L29.863226,288.281334 C29.863226,144.557478 157.437899,109.502635 259.945569,81.3357719 C293.537603,72.1056768 325.267355,63.3869166 348.051132,51.8113654 C373.666279,38.7973925 385.596823,23.4553423 385.596823,3.5279888 L382.785833,3.5279888 C382.785833,22.361821 371.328238,36.9545819 346.727156,49.4532094 C324.204098,60.8964151 292.612084,69.5770759 259.166222,78.7670663 C207.944362,92.8418083 149.88758,108.794118 104.736756,139.370605 C52.462883,174.76968 27.052236,223.479503 27.052236,288.281334 L27.052236,1313.49366 Z" id="Shape" fill="url(#linearGradient-4)"></path>
                <path d="M38.9912134,1313.49366 L41.8022034,1313.49366 L41.8022034,290.662216 C41.8022034,152.555691 164.227846,114.791775 262.598441,84.447896 C295.456806,74.3121033 326.49365,64.7384447 348.828371,52.5312446 C373.941756,38.8047451 385.638988,23.13651 385.638988,3.22185631 L382.827998,3.22185631 C382.827998,22.0804197 371.579119,37.0120653 347.427795,50.212525 C325.348171,62.2806955 294.446958,71.8129125 261.731954,81.9045901 C162.49487,112.515834 38.9912134,150.612618 38.9912134,290.662216 L38.9912134,1313.49366 Z" id="Shape" fill="url(#linearGradient-5)"></path>
                <path d="M53.7411807,1313.49366 L53.7411807,293.043767 C53.7411807,234.119947 76.6451273,188.319051 123.762239,153.023579 C164.809721,122.274642 218.191124,103.885972 265.288559,87.6616188 C329.889326,65.4075247 385.68045,46.1886874 385.68045,2.91706064 L382.86946,2.91706064 C382.86946,21.8057026 371.83281,37.089601 348.13757,51.0166241 C326.505596,63.7298117 296.30432,74.1336374 264.330011,85.1483913 C169.253896,117.900557 50.9294879,158.660962 50.9294879,293.044435 L50.9294879,1313.49366 L53.7411807,1313.49366 Z" id="Shape" fill="url(#linearGradient-6)"></path>
                <path d="M65.680158,1313.49366 L65.680158,295.424649 C65.680158,238.963925 87.5341999,194.27794 132.490363,158.811354 C171.695944,127.881947 222.867206,108.279441 268.015219,90.9842926 C331.176056,66.7891314 385.723318,45.8939179 385.723318,2.61092815 L382.912327,2.61092815 C382.912327,21.5349959 372.091421,37.1865207 348.857886,51.8655067 C327.681293,65.2457691 298.189089,76.5432611 266.965314,88.5044857 C221.626856,105.872491 170.238445,125.55788 130.695546,156.753315 C85.0549067,192.759309 62.8684653,238.119053 62.8684653,295.424649 L62.8684653,1313.49366 L65.680158,1313.49366 Z" id="Shape" fill="url(#linearGradient-7)"></path>
                <path d="M74.8081453,1313.49366 L77.6191353,1313.49366 L77.6191353,297.805531 C77.6191353,243.799214 98.4295971,200.238834 141.240975,164.635893 C178.615898,133.553419 227.581939,112.765151 270.784747,94.4239384 C332.481761,68.2315635 385.765482,45.6105115 385.765482,2.30546408 L382.954492,2.30546408 C382.954492,43.8759835 330.442388,66.1688454 269.638566,91.9828994 C226.255151,110.40098 177.083206,131.276141 139.390641,162.623305 C95.933438,198.764318 74.8081453,242.983084 74.8081453,297.805531 L74.8081453,1313.49366 Z" id="Shape" fill="url(#linearGradient-8)"></path>
                <path d="M89.5581127,1313.49366 L89.5581127,300.186413 C89.5581127,248.625146 109.333427,206.204407 150.014075,170.499867 C185.569585,139.293737 232.336026,117.350454 273.59644,97.9905824 C333.807846,69.7388315 385.80835,45.3398048 385.80835,2 L382.99736,2 C382.99736,43.6774653 331.723497,67.7356021 272.353982,95.5923218 C230.922098,115.032403 183.962401,137.06659 148.108224,168.534737 C106.818997,204.774006 86.7478254,247.837088 86.7478254,300.186413 L86.7478254,1313.49366 L89.5581127,1313.49366 Z" id="Shape" fill="url(#linearGradient-9)"></path>
                <path d="M91.3657774,274.964019 C67.3647482,279.02418 27.593365,279.536013 2.32515693,274.964019 C-0.00352189781,278.602464 -0.995992701,286.619998 2.32445255,291.701712 C11.5511204,295.033903 66.2356277,296.232872 89.4463431,291.75029 C92.9492226,290.628061 95.087719,280.489274 91.3657774,274.964019 Z" id="XMLID_99_" fill="#81455B"></path>
                <ellipse id="XMLID_87_" fill="#6D4059" cx="383.95955" cy="3.5" rx="3.48857537" ry="3.5"></ellipse>
            </g>
        </g>
    </g>
</svg>