<?xml version="1.0" encoding="UTF-8" standalone="no"?>
<svg width="768px" height="1365px" viewBox="0 0 768 1365" version="1.1" xmlns="http://www.w3.org/2000/svg" xmlns:xlink="http://www.w3.org/1999/xlink">
    <!-- Generator: Sketch 46.2 (44496) - http://www.bohemiancoding.com/sketch -->
    <title>Export</title>
    <desc>Created with Sketch.</desc>
    <defs></defs>
    <g id="E-vite-+-Itenerary" stroke="none" stroke-width="1" fill="none" fill-rule="evenodd" stroke-linecap="round">
        <g id="Export" stroke-width="2" stroke="#FBD2CB">
            <g id="Lights-B" transform="translate(678.000000, 348.000000)">
                <g id="XMLID_4131_">
                    <g id="Group">
                        <path d="M83.9364463,0.587458453 C83.9364463,0.699068875 83.9350413,0.810010972 83.9329339,0.920284743" id="Shape"></path>
                        <path d="M83.5276033,4.26057751 C77.4054959,31.40196 4.45090909,41.2263505 0.698966942,66.1562427" id="Shape" stroke-dasharray="1.0075,5.0375"></path>
                        <path d="M0.553553719,67.8317357 C0.550743802,67.9426778 0.549338843,68.0536198 0.549338843,68.1645619" id="Shape"></path>
                    </g>
                </g>
                <g id="XMLID_4129_" transform="translate(0.000000, 110.273771)">
                    <g id="Group">
                        <path d="M83.9364463,0.183789618 C83.9364463,0.294731715 83.9350413,0.405673812 83.9329339,0.516615909" id="Shape"></path>
                        <path d="M83.5276033,3.85624035 C77.4054959,30.9982912 4.45090909,40.8220134 0.698966942,65.7525738" id="Shape" stroke-dasharray="1.0075,5.0375"></path>
                        <path d="M0.553553719,67.4280668 C0.550743802,67.5390089 0.549338843,67.649951 0.549338843,67.7608931" id="Shape"></path>
                    </g>
                </g>
                <g id="XMLID_4127_" transform="translate(0.000000, 219.879216)">
                    <g id="Group">
                        <path d="M83.9364463,0.447778343 C83.9364463,0.559388765 83.9350413,0.670330862 83.9329339,0.780604633" id="Shape"></path>
                        <path d="M83.5276033,4.1208974 C77.4054959,31.2629482 4.45090909,41.0866704 0.698966942,66.0172309" id="Shape" stroke-dasharray="1.0075,5.0375"></path>
                        <path d="M0.553553719,67.6920555 C0.550743802,67.8029976 0.549338843,67.9139397 0.549338843,68.0248818" id="Shape"></path>
                    </g>
                </g>
                <g id="XMLID_4125_" transform="translate(0.000000, 330.152987)">
                    <g id="Group">
                        <path d="M83.9364463,0.0441095084 C83.9364463,0.155719931 83.9350413,0.266662028 83.9329339,0.376935799" id="Shape"></path>
                        <path d="M83.5276033,3.71656024 C77.4054959,30.8586111 4.45090909,40.6823332 0.698966942,65.6128937" id="Shape" stroke-dasharray="1.0075,5.0375"></path>
                        <path d="M0.553553719,67.2883867 C0.550743802,67.3993288 0.549338843,67.5102709 0.549338843,67.621213" id="Shape"></path>
                    </g>
                </g>
                <g id="XMLID_4123_" transform="translate(0.000000, 439.758432)">
                    <g id="Group">
                        <path d="M83.9364463,0.308766559 C83.9364463,0.419708656 83.9350413,0.530650752 83.9329339,0.641592849" id="Shape"></path>
                        <path d="M83.5276033,3.98121729 C77.4054959,31.1232681 4.45090909,40.9469903 0.698966942,65.8775508" id="Shape" stroke-dasharray="1.0075,5.0375"></path>
                        <path d="M0.553553719,67.5523754 C0.550743802,67.6633175 0.549338843,67.7742596 0.549338843,67.8852017" id="Shape"></path>
                    </g>
                </g>
                <g id="XMLID_4121_" transform="translate(0.000000, 659.637648)">
                    <g id="Group">
                        <path d="M83.9364463,0.169086449 C83.9364463,0.280028546 83.9350413,0.390970642 83.9329339,0.501912739" id="Shape"></path>
                        <path d="M83.5276033,3.84153718 C77.4054959,30.983588 4.45090909,40.8073102 0.698966942,65.7378707" id="Shape" stroke-dasharray="1.0075,5.0375"></path>
                        <path d="M0.553553719,67.4133636 C0.550743802,67.5243057 0.549338843,67.6352478 0.549338843,67.7461899" id="Shape"></path>
                    </g>
                </g>
                <g id="XMLID_4119_" transform="translate(0.000000, 765.233138)">
                    <g id="Group">
                        <path d="M83.9364463,0.169086449 C83.9364463,0.280028546 83.9350413,0.390970642 83.9329339,0.501912739" id="Shape"></path>
                        <path d="M83.5276033,3.84153718 C77.4054959,30.983588 4.45090909,40.8073102 0.698966942,65.7378707" id="Shape" stroke-dasharray="1.0075,5.0375"></path>
                        <path d="M0.553553719,67.4133636 C0.550743802,67.5243057 0.549338843,67.6352478 0.549338843,67.7461899" id="Shape"></path>
                    </g>
                </g>
                <g id="XMLID_4117_" transform="translate(0.000000, 870.828628)">
                    <g id="Group">
                        <path d="M83.9364463,0.169086449 C83.9364463,0.280028546 83.9350413,0.390970642 83.9329339,0.501912739" id="Shape"></path>
                        <path d="M83.5276033,3.84153718 C77.4054959,30.983588 4.45090909,40.8073102 0.698966942,65.7378707" id="Shape" stroke-dasharray="1.0075,5.0375"></path>
                        <path d="M0.553553719,67.4133636 C0.550743802,67.5243057 0.549338843,67.6352478 0.549338843,67.7461899" id="Shape"></path>
                    </g>
                </g>
                <g id="XMLID_4115_" transform="translate(0.000000, 549.363877)">
                    <g id="Group">
                        <path d="M83.9364463,0.572755283 C83.9364463,0.684365706 83.9350413,0.795307803 83.9329339,0.905581574" id="Shape"></path>
                        <path d="M83.5276033,4.24520602 C77.4054959,31.3872568 4.45090909,41.210979 0.698966942,66.1415395" id="Shape" stroke-dasharray="1.0075,5.0375"></path>
                        <path d="M0.553553719,67.8170325 C0.550743802,67.9279746 0.549338843,68.0389167 0.549338843,68.1498588" id="Shape"></path>
                    </g>
                </g>
            </g>
        </g>
    </g>
</svg>