<?xml version="1.0" encoding="UTF-8" standalone="no"?>
<svg width="387px" height="1311px" viewBox="0 0 387 1311" version="1.1" xmlns="http://www.w3.org/2000/svg" xmlns:xlink="http://www.w3.org/1999/xlink">
    <!-- Generator: Sketch 46.2 (44496) - http://www.bohemiancoding.com/sketch -->
    <title>Pillar B</title>
    <desc>Created with Sketch.</desc>
    <defs>
        <rect id="path-1" x="-408" y="-54" width="824" height="1365"></rect>
        <linearGradient x1="51.3236567%" y1="-0.369770599%" x2="48.6773174%" y2="100.336674%" id="linearGradient-3">
            <stop stop-color="#6D4059" offset="0%"></stop>
            <stop stop-color="#A14B5E" offset="49.89%"></stop>
            <stop stop-color="#E86365" stop-opacity="0.6" offset="97.43%"></stop>
        </linearGradient>
        <linearGradient x1="51.365768%" y1="-0.34905744%" x2="48.6344217%" y2="100.333235%" id="linearGradient-4">
            <stop stop-color="#6D4059" offset="0%"></stop>
            <stop stop-color="#A14B5E" offset="49.89%"></stop>
            <stop stop-color="#E86365" stop-opacity="0.6" offset="97.43%"></stop>
        </linearGradient>
        <linearGradient x1="51.4110434%" y1="-0.328348968%" x2="48.5890938%" y2="100.329792%" id="linearGradient-5">
            <stop stop-color="#6D4059" offset="0%"></stop>
            <stop stop-color="#A14B5E" offset="49.89%"></stop>
            <stop stop-color="#E86365" stop-opacity="0.6" offset="97.43%"></stop>
        </linearGradient>
        <linearGradient x1="51.4591861%" y1="-0.307603055%" x2="48.5403882%" y2="100.326361%" id="linearGradient-6">
            <stop stop-color="#6D4059" offset="0%"></stop>
            <stop stop-color="#A14B5E" offset="49.89%"></stop>
            <stop stop-color="#E86365" stop-opacity="0.6" offset="97.43%"></stop>
        </linearGradient>
        <linearGradient x1="51.5106036%" y1="-0.286972291%" x2="48.4880528%" y2="100.322926%" id="linearGradient-7">
            <stop stop-color="#6D4059" offset="0%"></stop>
            <stop stop-color="#A14B5E" offset="49.89%"></stop>
            <stop stop-color="#E86365" stop-opacity="0.6" offset="97.43%"></stop>
        </linearGradient>
        <linearGradient x1="51.5661371%" y1="-0.266246254%" x2="48.4322086%" y2="100.319493%" id="linearGradient-8">
            <stop stop-color="#6D4059" offset="0%"></stop>
            <stop stop-color="#A14B5E" offset="49.89%"></stop>
            <stop stop-color="#E86365" stop-opacity="0.6" offset="97.43%"></stop>
        </linearGradient>
        <linearGradient x1="51.6257842%" y1="-0.245582714%" x2="48.3719558%" y2="100.316067%" id="linearGradient-9">
            <stop stop-color="#6D4059" offset="0%"></stop>
            <stop stop-color="#A14B5E" offset="49.89%"></stop>
            <stop stop-color="#E86365" stop-opacity="0.6" offset="97.43%"></stop>
        </linearGradient>
        <linearGradient x1="51.6901964%" y1="-0.224929071%" x2="48.3069367%" y2="100.312638%" id="linearGradient-10">
            <stop stop-color="#6D4059" offset="0%"></stop>
            <stop stop-color="#A14B5E" offset="49.89%"></stop>
            <stop stop-color="#E86365" stop-opacity="0.6" offset="97.43%"></stop>
        </linearGradient>
    </defs>
    <g id="E-vite-+-Itenerary" stroke="none" stroke-width="1" fill="none" fill-rule="evenodd">
        <mask id="mask-2" fill="white">
            <use xlink:href="#path-1"></use>
        </mask>
        <g id="Mask"></g>
        <g id="Pillar-B" mask="url(#mask-2)">
            <path d="M383.792688,1310.49366 L380.981679,1310.49366 L380.981679,284.519571 C380.981679,215.663155 353.81187,165.5109 297.920574,131.195319 C249.408178,101.410232 187.152055,88.1175318 132.224233,76.3889143 C97.1920312,68.9087207 64.1036422,61.844279 40.4391615,51.4785528 C13.8406899,39.8281395 1.45257248,25.1030331 1.45257248,5.13891695 L4.26358165,5.13891695 C4.26358165,23.9353181 16.1323651,37.8884092 41.6148661,49.0502136 C65.0094899,59.297631 97.9566257,66.3319942 132.839844,73.7807725 C187.996061,85.5581839 250.512202,98.9063626 299.444844,128.949456 C356.20193,163.796424 383.792688,214.683932 383.792688,284.520239 L383.792688,1310.49366 Z" id="Shape" fill="url(#linearGradient-3)" fill-rule="nonzero"></path>
            <path d="M371.854332,1310.49366 L369.043323,1310.49366 L369.043323,286.900453 C369.043323,137.539213 236.299739,105.256941 129.638807,79.3178937 C95.3220073,70.9727756 62.9082606,63.0901982 39.6815945,52.1282488 C13.5715358,39.8060819 1.41111009,24.7775166 1.41111009,4.83345288 L4.22211927,4.83345288 C4.22211927,23.6465643 15.8871046,37.9131404 40.9310881,49.7333302 C63.8921138,60.5696182 96.1667156,68.418775 130.335235,76.7284674 C183.523745,89.6635677 243.808648,104.324507 290.84667,134.644991 C345.356354,169.781381 371.854332,219.585394 371.854332,286.901121 L371.854332,1310.49366 Z" id="Shape" fill="url(#linearGradient-4)" fill-rule="nonzero"></path>
            <path d="M357.103561,1310.49366 L357.103561,289.281334 C357.103561,145.557478 229.528018,110.502635 127.01965,82.3357719 C93.4273872,73.1056768 61.6974183,64.3869166 38.9134862,52.8113654 C13.2981651,39.7973925 1.36753945,24.4553423 1.36753945,4.5279888 L4.17854862,4.5279888 C4.17854862,23.361821 15.636222,37.9545819 40.2374716,50.4532094 C62.7606826,61.8964151 94.3529119,70.5770759 127.799002,79.7670663 C179.021211,93.8418083 237.078389,109.794118 282.229521,140.370605 C334.503048,175.76968 359.913868,224.479503 359.913868,289.281334 L359.913868,1310.49366 L357.103561,1310.49366 Z" id="Shape" fill="url(#linearGradient-5)" fill-rule="nonzero"></path>
            <path d="M345.164503,1310.49366 L345.164503,291.662216 C345.164503,153.555691 222.738026,115.791775 124.36676,85.447896 C91.5081706,75.3121033 60.4711156,65.7384447 38.1362422,53.5312446 C13.0226862,39.8047451 1.32537431,24.13651 1.32537431,4.22185631 L4.13638349,4.22185631 C4.13638349,23.0804197 15.3853394,38.0120653 39.5368275,51.212525 C61.6166018,63.2806955 92.5180257,72.8129125 125.233253,82.9045901 C224.47031,113.515834 347.974809,151.612618 347.974809,291.662216 L347.974809,1310.49366 L345.164503,1310.49366 Z" id="Shape" fill="url(#linearGradient-6)" fill-rule="nonzero"></path>
            <path d="M333.225444,1310.49366 L333.225444,294.043767 C333.225444,235.119947 310.321341,189.319051 263.203908,154.023579 C222.156147,123.274642 168.77438,104.885972 121.676624,88.6616188 C57.0754165,66.4075247 1.28391193,47.1886874 1.28391193,3.91706064 L4.0949211,3.91706064 C4.0949211,22.8057026 15.1316459,38.089601 38.8270477,52.0166241 C60.4591688,64.7298117 90.6606514,75.1336374 122.635178,86.1483913 C217.711941,118.900557 336.037156,159.660962 336.037156,294.044435 L336.037156,1310.49366 L333.225444,1310.49366 Z" id="Shape" fill="url(#linearGradient-7)" fill-rule="nonzero"></path>
            <path d="M324.097394,1310.49366 L321.286385,1310.49366 L321.286385,296.424649 C321.286385,239.963925 299.432194,195.27794 254.475725,159.811354 C215.269877,128.881947 164.098266,109.279441 118.949945,91.9842926 C55.7886771,67.7891314 1.24104404,46.8939179 1.24104404,3.61092815 L4.05205321,3.61092815 C4.05205321,22.5349959 14.873033,38.1865207 38.1060239,52.8655067 C59.2827615,66.2457691 88.775167,77.5432611 119.999154,89.5044857 C165.337921,106.872491 216.726683,126.55788 256.269851,157.753315 C301.910802,193.759309 324.097394,239.119053 324.097394,296.424649 L324.097394,1310.49366 Z" id="Shape" fill="url(#linearGradient-8)" fill-rule="nonzero"></path>
            <path d="M312.158336,1310.49366 L309.347327,1310.49366 L309.347327,298.805531 C309.347327,244.799214 288.536723,201.238834 245.725053,165.635893 C208.349875,134.553419 159.383501,113.765151 116.180398,95.4239384 C54.4829633,69.2315635 1.1988789,46.6105115 1.1988789,3.30546408 L4.00988807,3.30546408 C4.00988807,44.8759835 56.5223505,67.1688454 117.326587,92.9828994 C160.710297,111.40098 209.882578,132.276141 247.5754,163.623305 C291.032899,199.764318 312.158336,243.983084 312.158336,298.805531 L312.158336,1310.49366 Z" id="Shape" fill="url(#linearGradient-9)" fill-rule="nonzero"></path>
            <path d="M297.408268,1310.49366 L297.408268,301.186413 C297.408268,249.625146 277.632818,207.204407 236.951894,171.499867 C201.396141,140.293737 154.629382,118.350454 113.368686,98.9905824 C53.1568697,70.7388315 1.15601101,46.3398048 1.15601101,3 L3.96702018,3 C3.96702018,44.6774653 55.241233,68.7356021 114.611152,96.5923218 C156.043319,116.032403 203.003336,138.06659 238.857758,169.534737 C280.147266,205.774006 300.218574,248.837088 300.218574,301.186413 L300.218574,1310.49366 L297.408268,1310.49366 Z" id="Shape" fill="url(#linearGradient-10)" fill-rule="nonzero"></path>
            <path d="M295.601117,275.964019 C319.602146,280.02418 359.373529,280.536013 384.641737,275.964019 C386.970416,279.602464 387.962887,287.619998 384.642442,292.701712 C375.415774,296.033903 320.731266,297.232872 297.520551,292.75029 C294.017672,291.628061 291.879175,281.489274 295.601117,275.964019 Z" id="XMLID_8202_" fill="#81455B" fill-rule="nonzero"></path>
            <circle id="Oval" fill="#6D4059" cx="3" cy="3" r="3"></circle>
        </g>
    </g>
</svg>