<?xml version="1.0" encoding="UTF-8" standalone="no"?>
<svg width="387px" height="1311px" viewBox="0 0 387 1311" version="1.1" xmlns="http://www.w3.org/2000/svg" xmlns:xlink="http://www.w3.org/1999/xlink">
    <!-- Generator: Sketch 46.2 (44496) - http://www.bohemiancoding.com/sketch -->
    <title>Pillar A</title>
    <desc>Created with Sketch.</desc>
    <defs>
        <rect id="path-1" x="-27" y="-54" width="824" height="1365"></rect>
        <linearGradient x1="48.6763249%" y1="-0.369770599%" x2="51.3226826%" y2="100.336674%" id="linearGradient-3">
            <stop stop-color="#6D4059" offset="0%"></stop>
            <stop stop-color="#A14B5E" offset="49.89%"></stop>
            <stop stop-color="#E86365" stop-opacity="0.6" offset="97.43%"></stop>
        </linearGradient>
        <linearGradient x1="48.6341208%" y1="-0.34905744%" x2="51.3654808%" y2="100.333235%" id="linearGradient-4">
            <stop stop-color="#6D4059" offset="0%"></stop>
            <stop stop-color="#A14B5E" offset="49.89%"></stop>
            <stop stop-color="#E86365" stop-opacity="0.6" offset="97.43%"></stop>
        </linearGradient>
        <linearGradient x1="48.588937%" y1="-0.328348968%" x2="51.4109062%" y2="100.329792%" id="linearGradient-5">
            <stop stop-color="#6D4059" offset="0%"></stop>
            <stop stop-color="#A14B5E" offset="49.89%"></stop>
            <stop stop-color="#E86365" stop-opacity="0.6" offset="97.43%"></stop>
        </linearGradient>
        <linearGradient x1="48.5407734%" y1="-0.307603055%" x2="51.4596118%" y2="100.326361%" id="linearGradient-6">
            <stop stop-color="#6D4059" offset="0%"></stop>
            <stop stop-color="#A14B5E" offset="49.89%"></stop>
            <stop stop-color="#E86365" stop-opacity="0.6" offset="97.43%"></stop>
        </linearGradient>
        <linearGradient x1="48.4893754%" y1="-0.286972291%" x2="51.5119262%" y2="100.322926%" id="linearGradient-7">
            <stop stop-color="#6D4059" offset="0%"></stop>
            <stop stop-color="#A14B5E" offset="49.89%"></stop>
            <stop stop-color="#E86365" stop-opacity="0.6" offset="97.43%"></stop>
        </linearGradient>
        <linearGradient x1="48.4339752%" y1="-0.266246254%" x2="51.567875%" y2="100.319493%" id="linearGradient-8">
            <stop stop-color="#6D4059" offset="0%"></stop>
            <stop stop-color="#A14B5E" offset="49.89%"></stop>
            <stop stop-color="#E86365" stop-opacity="0.6" offset="97.43%"></stop>
        </linearGradient>
        <linearGradient x1="48.3741932%" y1="-0.245582714%" x2="51.6280216%" y2="100.316067%" id="linearGradient-9">
            <stop stop-color="#6D4059" offset="0%"></stop>
            <stop stop-color="#A14B5E" offset="49.89%"></stop>
            <stop stop-color="#E86365" stop-opacity="0.6" offset="97.43%"></stop>
        </linearGradient>
        <linearGradient x1="48.3098036%" y1="-0.224929071%" x2="51.6930398%" y2="100.312638%" id="linearGradient-10">
            <stop stop-color="#6D4059" offset="0%"></stop>
            <stop stop-color="#A14B5E" offset="49.89%"></stop>
            <stop stop-color="#E86365" stop-opacity="0.6" offset="97.43%"></stop>
        </linearGradient>
    </defs>
    <g id="E-vite-+-Itenerary" stroke="none" stroke-width="1" fill="none" fill-rule="evenodd">
        <mask id="mask-2" fill="white">
            <use xlink:href="#path-1"></use>
        </mask>
        <g id="Mask"></g>
        <g id="Pillar-A" mask="url(#mask-2)">
            <path d="M3.17428138,1310.49366 L5.98527139,1310.49366 L5.98527139,284.519571 C5.98527139,215.663155 33.1548953,165.5109 89.0458097,131.195319 C137.557875,101.410232 199.813574,88.1175318 254.741021,76.3889143 C289.772984,68.9087207 322.861148,61.844279 346.525467,51.4785528 C373.123758,39.8281395 385.511791,25.1030331 385.511791,5.13891695 L382.7008,5.13891695 C382.7008,23.9353181 370.832098,37.8884092 345.349771,49.0502136 C321.955306,59.297631 289.008395,66.3319942 254.125415,73.7807725 C198.969574,85.5581839 136.453859,98.9063626 87.5215504,128.949456 C30.7641483,163.795756 3.17428138,214.683264 3.17428138,284.519571 L3.17428138,1310.49366 Z" id="Shape" fill="url(#linearGradient-3)" fill-rule="nonzero"></path>
            <path d="M15.112556,1310.49366 L17.923546,1310.49366 L17.923546,286.900453 C17.923546,137.539213 150.666225,105.256941 257.32643,79.3178937 C291.642996,70.9727756 324.056521,63.0901982 347.283029,52.1282488 C373.39291,39.8060819 385.553955,24.7775166 385.553955,4.83345288 L382.742965,4.83345288 C382.742965,23.6465643 371.07806,37.9131404 346.034247,49.7333302 C323.073378,60.5696182 290.798996,68.418775 256.630709,76.7284674 C203.442562,89.6635677 143.15807,104.324507 96.1203689,134.644991 C41.6103533,169.780713 15.112556,219.584726 15.112556,286.900453 L15.112556,1310.49366 Z" id="Shape" fill="url(#linearGradient-4)" fill-rule="nonzero"></path>
            <path d="M27.052236,1310.49366 L29.863226,1310.49366 L29.863226,289.281334 C29.863226,145.557478 157.437899,110.502635 259.945569,82.3357719 C293.537603,73.1056768 325.267355,64.3869166 348.051132,52.8113654 C373.666279,39.7973925 385.596823,24.4553423 385.596823,4.5279888 L382.785833,4.5279888 C382.785833,23.361821 371.328238,37.9545819 346.727156,50.4532094 C324.204098,61.8964151 292.612084,70.5770759 259.166222,79.7670663 C207.944362,93.8418083 149.88758,109.794118 104.736756,140.370605 C52.462883,175.76968 27.052236,224.479503 27.052236,289.281334 L27.052236,1310.49366 Z" id="Shape" fill="url(#linearGradient-5)" fill-rule="nonzero"></path>
            <path d="M38.9912134,1310.49366 L41.8022034,1310.49366 L41.8022034,291.662216 C41.8022034,153.555691 164.227846,115.791775 262.598441,85.447896 C295.456806,75.3121033 326.49365,65.7384447 348.828371,53.5312446 C373.941756,39.8047451 385.638988,24.13651 385.638988,4.22185631 L382.827998,4.22185631 C382.827998,23.0804197 371.579119,38.0120653 347.427795,51.212525 C325.348171,63.2806955 294.446958,72.8129125 261.731954,82.9045901 C162.49487,113.515834 38.9912134,151.612618 38.9912134,291.662216 L38.9912134,1310.49366 Z" id="Shape" fill="url(#linearGradient-6)" fill-rule="nonzero"></path>
            <path d="M53.7411807,1310.49366 L53.7411807,294.043767 C53.7411807,235.119947 76.6451273,189.319051 123.762239,154.023579 C164.809721,123.274642 218.191124,104.885972 265.288559,88.6616188 C329.889326,66.4075247 385.68045,47.1886874 385.68045,3.91706064 L382.86946,3.91706064 C382.86946,22.8057026 371.83281,38.089601 348.13757,52.0166241 C326.505596,64.7298117 296.30432,75.1336374 264.330011,86.1483913 C169.253896,118.900557 50.9294879,159.660962 50.9294879,294.044435 L50.9294879,1310.49366 L53.7411807,1310.49366 Z" id="Shape" fill="url(#linearGradient-7)" fill-rule="nonzero"></path>
            <path d="M65.680158,1310.49366 L65.680158,296.424649 C65.680158,239.963925 87.5341999,195.27794 132.490363,159.811354 C171.695944,128.881947 222.867206,109.279441 268.015219,91.9842926 C331.176056,67.7891314 385.723318,46.8939179 385.723318,3.61092815 L382.912327,3.61092815 C382.912327,22.5349959 372.091421,38.1865207 348.857886,52.8655067 C327.681293,66.2457691 298.189089,77.5432611 266.965314,89.5044857 C221.626856,106.872491 170.238445,126.55788 130.695546,157.753315 C85.0549067,193.759309 62.8684653,239.119053 62.8684653,296.424649 L62.8684653,1310.49366 L65.680158,1310.49366 Z" id="Shape" fill="url(#linearGradient-8)" fill-rule="nonzero"></path>
            <path d="M74.8081453,1310.49366 L77.6191353,1310.49366 L77.6191353,298.805531 C77.6191353,244.799214 98.4295971,201.238834 141.240975,165.635893 C178.615898,134.553419 227.581939,113.765151 270.784747,95.4239384 C332.481761,69.2315635 385.765482,46.6105115 385.765482,3.30546408 L382.954492,3.30546408 C382.954492,44.8759835 330.442388,67.1688454 269.638566,92.9828994 C226.255151,111.40098 177.083206,132.276141 139.390641,163.623305 C95.933438,199.764318 74.8081453,243.983084 74.8081453,298.805531 L74.8081453,1310.49366 Z" id="Shape" fill="url(#linearGradient-9)" fill-rule="nonzero"></path>
            <path d="M89.5581127,1310.49366 L89.5581127,301.186413 C89.5581127,249.625146 109.333427,207.204407 150.014075,171.499867 C185.569585,140.293737 232.336026,118.350454 273.59644,98.9905824 C333.807846,70.7388315 385.80835,46.3398048 385.80835,3 L382.99736,3 C382.99736,44.6774653 331.723497,68.7356021 272.353982,96.5923218 C230.922098,116.032403 183.962401,138.06659 148.108224,169.534737 C106.818997,205.774006 86.7478254,248.837088 86.7478254,301.186413 L86.7478254,1310.49366 L89.5581127,1310.49366 Z" id="Shape" fill="url(#linearGradient-10)" fill-rule="nonzero"></path>
            <path d="M91.3657774,275.964019 C67.3647482,280.02418 27.593365,280.536013 2.32515693,275.964019 C-0.00352189781,279.602464 -0.995992701,287.619998 2.32445255,292.701712 C11.5511204,296.033903 66.2356277,297.232872 89.4463431,292.75029 C92.9492226,291.628061 95.087719,281.489274 91.3657774,275.964019 Z" id="XMLID_99_" fill="#81455B" fill-rule="nonzero"></path>
            <circle id="Oval" fill="#6D4059" cx="384" cy="3" r="3"></circle>
        </g>
    </g>
</svg>