<?xml version="1.0" encoding="UTF-8" standalone="no"?>
<svg width="261px" height="65px" viewBox="0 0 261 65" version="1.1" xmlns="http://www.w3.org/2000/svg" xmlns:xlink="http://www.w3.org/1999/xlink">
    <!-- Generator: Sketch 46.2 (44496) - http://www.bohemiancoding.com/sketch -->
    <title>button-01 copy</title>
    <desc>Created with Sketch.</desc>
    <defs>
        <linearGradient x1="50%" y1="100%" x2="50%" y2="0%" id="linearGradient-1">
            <stop stop-color="#F38174" offset="0%"></stop>
            <stop stop-color="#E86365" offset="80.65%"></stop>
            <stop stop-color="#EA6867" offset="100%"></stop>
        </linearGradient>
    </defs>
    <g id="E-vite-+-Itenerary" stroke="none" stroke-width="1" fill="none" fill-rule="evenodd">
        <g id="button-01-copy" transform="translate(2.000000, 2.000000)">
            <path d="M257,30.7 C257,38.7 252.4,45.6 245.9,48.6 C243,55.5 236.4,60.2 228.8,60.2 C228.5,60.2 162,60.2 29.3,60.2 C20.7,60.2 14.1,55.4 11.2,48.6 C4.7,45.6 0.1,38.7 0.1,30.7 C0.1,22.7 4.7,15.8 11.2,12.8 C14.1,5.9 20.8,0.8 28.4,0.8 L227.5,0.8 C236,0.8 242.9,5.9 245.8,12.8 C252.4,15.9 257,22.7 257,30.7 Z" id="XMLID_3107_" fill="url(#linearGradient-1)" fill-rule="nonzero"></path>
            <path d="M257,30.7 C257,38.7 252.4,45.6 245.9,48.6 C243,55.5 236.4,60.2 228.8,60.2 C228.5,60.2 162,60.2 29.3,60.2 C20.7,60.2 14.1,55.4 11.2,48.6 C4.7,45.6 0.1,38.7 0.1,30.7 C0.1,22.7 4.7,15.8 11.2,12.8 C14.1,5.9 20.8,0.8 28.4,0.8 L227.5,0.8 C236,0.8 242.9,5.9 245.8,12.8 C252.4,15.9 257,22.7 257,30.7 Z" id="XMLID_3106_" stroke="#B5505F" stroke-width="4"></path>
            <path d="M224.8,40.1 C223.6,38.3 221.9,36.7 220,35.6 C219,33.5 217.5,31.8 215.7,30.5 C217.5,29.2 218.9,27.5 220,25.4 C222,24.3 223.6,22.8 224.8,20.9 C226,22.7 227.7,24.3 229.6,25.4 C230.6,27.5 232.1,29.2 233.9,30.5 C232.1,31.8 230.7,33.5 229.6,35.6 C227.7,36.7 226,38.3 224.8,40.1 Z" id="XMLID_3105_" fill="#B5505F" fill-rule="nonzero"></path>
            <path d="M30.8,40.1 C29.6,38.3 27.9,36.7 26,35.6 C25,33.5 23.5,31.8 21.7,30.5 C23.5,29.2 24.9,27.5 26,25.4 C28,24.3 29.6,22.8 30.8,20.9 C32,22.7 33.7,24.3 35.6,25.4 C36.6,27.5 38.1,29.2 39.9,30.5 C38.1,31.8 36.7,33.5 35.6,35.6 C33.7,36.7 32.1,38.3 30.8,40.1 Z" id="XMLID_3104_" fill="#B5505F" fill-rule="nonzero"></path>
        </g>
    </g>
</svg>