<?xml version="1.0" encoding="UTF-8" standalone="no"?>
<svg width="674px" height="1082px" viewBox="0 0 674 1082" version="1.1" xmlns="http://www.w3.org/2000/svg" xmlns:xlink="http://www.w3.org/1999/xlink">
    <!-- Generator: Sketch 46.2 (44496) - http://www.bohemiancoding.com/sketch -->
    <title>Envelope</title>
    <desc>Created with Sketch.</desc>
    <defs>
        <linearGradient x1="50%" y1="100.000025%" x2="50%" y2="-2.45028975e-05%" id="linearGradient-1">
            <stop stop-color="#FBD2CB" offset="0%"></stop>
            <stop stop-color="#F9C2B5" offset="22.15%"></stop>
            <stop stop-color="#F8B3A1" offset="48.81%"></stop>
            <stop stop-color="#F6AA96" offset="75%"></stop>
            <stop stop-color="#F6A792" offset="100%"></stop>
        </linearGradient>
        <linearGradient x1="49.9999405%" y1="99.9999764%" x2="49.9999405%" y2="-7.88120812e-06%" id="linearGradient-2">
            <stop stop-color="#E86365" offset="0%"></stop>
            <stop stop-color="#F6A792" offset="29.56%"></stop>
            <stop stop-color="#FBD2CB" offset="100%"></stop>
        </linearGradient>
        <linearGradient x1="50%" y1="6.79621753%" x2="50%" y2="144.691137%" id="linearGradient-3">
            <stop stop-color="#FBD2CB" offset="0%"></stop>
            <stop stop-color="#FAC5B9" offset="18.65%"></stop>
            <stop stop-color="#F8B4A3" offset="48.37%"></stop>
            <stop stop-color="#F7AB96" offset="76.19%"></stop>
            <stop stop-color="#F6A792" offset="100%"></stop>
        </linearGradient>
        <linearGradient x1="50.0000108%" y1="99.9999455%" x2="50.0000108%" y2="1.52829238e-06%" id="linearGradient-4">
            <stop stop-color="#F6A792" offset="0%"></stop>
            <stop stop-color="#F7AB96" offset="23.7%"></stop>
            <stop stop-color="#F8B5A3" offset="51.77%"></stop>
            <stop stop-color="#FAC5BA" offset="81.94%"></stop>
            <stop stop-color="#FBD2CB" offset="100%"></stop>
        </linearGradient>
    </defs>
    <g id="RSVP" stroke="none" stroke-width="1" fill="none" fill-rule="evenodd">
        <g id="Envelope" fill-rule="nonzero">
            <polygon id="XMLID_1_" fill="url(#linearGradient-1)" points="674 982 0 982 0 691.477721 337 402 674 691.477721"></polygon>
            <rect id="XMLID_3_" fill="url(#linearGradient-2)" x="39" y="0" width="597" height="991"></rect>
            <path d="M673.095182,695.847206 L359.345598,862.004486 C344.799617,869.25401 333.925465,869.293742 318.191999,862.824652 L0,691 L0,1050.04656 C0,1067.14162 13.8726939,1081 30.9854036,1081 L643.014596,1081 C660.093216,1081 673.951705,1067.19483 674,1050.13383 L673.095182,695.847206 Z" id="XMLID_385_" fill="url(#linearGradient-3)"></path>
            <path d="M642.776059,1082 L27.291532,1082 C16.3020796,1082 6,1070.73055 6,1070.73055 L229.553638,877.302775 C307.979398,801.269331 367.756713,803.201704 444.721186,877.302775 L663,1072.96354 C663,1072.96354 653.765512,1082 642.776059,1082 Z" id="Shape" fill="url(#linearGradient-4)"></path>
        </g>
    </g>
</svg>