<?xml version="1.0" encoding="UTF-8" standalone="no"?>
<svg width="112px" height="110px" viewBox="0 0 112 110" version="1.1" xmlns="http://www.w3.org/2000/svg" xmlns:xlink="http://www.w3.org/1999/xlink">
    <!-- Generator: Sketch 46.2 (44496) - http://www.bohemiancoding.com/sketch -->
    <title>MOnogram Copy</title>
    <desc>Created with Sketch.</desc>
    <defs></defs>
    <g id="RSVP" stroke="none" stroke-width="1" fill="none" fill-rule="evenodd">
        <g id="MOnogram-Copy" fill-rule="nonzero" fill="#81455B">
            <g id="XMLID_24561_">
                <g id="XMLID_24932_" transform="translate(37.574194, 21.710526)">
                    <g id="XMLID_24955_" transform="translate(3.612903, 16.644737)">
                        <g id="XMLID_24956_">
                            <g id="XMLID_24957_">
                                <path d="M0.679225806,0.04125 C0.653212903,0.09625 0.630090323,0.150526316 0.604077419,0.205526316 L0.604077419,0.184539474 L0.679225806,0.04125 Z" id="XMLID_24958_"></path>
                            </g>
                        </g>
                    </g>
                    <g id="XMLID_24933_" opacity="0.9">
                        <g id="XMLID_24934_">
                            <g id="XMLID_24950_" transform="translate(3.612903, 14.473684)">
                                <g id="XMLID_24951_">
                                    <path d="M0.604077419,2.35486842 L0.604077419,2.37585526 C0.630090323,2.32085526 0.653212903,2.26657895 0.679225806,2.21157895 L0.604077419,2.35486842 Z M1.6091871,0.492105263 C1.58317419,0.539144737 1.55716129,0.583289474 1.53403871,0.630328947 L1.62219355,0.617302632 C1.62002581,0.596315789 1.61424516,0.560131579 1.6091871,0.492105263 Z" id="XMLID_24952_"></path>
                                </g>
                            </g>
                            <g id="XMLID_24945_" transform="translate(5.058065, 14.473684)">
                                <g id="XMLID_24947_">
                                    <polygon id="XMLID_24948_" points="0.0108387097 0.640460526 0.0578064516 0.666513158 0.0679225806 0.666513158 0.0729806452 0.656381579 0.0888774194 0.630328947"></polygon>
                                </g>
                            </g>
                            <g id="XMLID_24935_">
                                <g id="XMLID_24936_">
                                    <path d="M12.2954323,22.8155921 C7.88985806,20.7914474 5.41429677,17.4198026 5.24304516,15.1358553 L5.1259871,15.1409211 L5.11587097,15.1409211 L5.06890323,15.1148684 L5.14694194,15.1047368 C5.17006452,15.0576974 5.19607742,15.0135526 5.22209032,14.9665132 C8.35230968,9.28414474 14.0202323,6.20921053 20.4367484,6.72736842 C24.1724903,7.03203947 27.9725419,8.82171053 30.4741161,11.4363816 C29.666271,12.7346711 27.7362581,16.62375 30.5882839,20.6199342 C32.695329,23.5725658 32.4843355,25.7428947 32.4821677,25.7609868 L32.2148129,27.9074342 L33.5992774,26.2473026 C38.9066323,19.8969737 33.2690581,12.6926974 31.9886452,11.2098684 C32.399071,9.51355263 31.9236129,7.47927632 30.6822194,5.68671053 C28.528929,2.58572368 24.4947613,0.699078947 19.613729,0.517434211 C14.9169548,0.335065789 10.5164387,2.00822368 7.54229677,5.09111842 C5.00459355,7.71881579 3.72634839,11.1194079 3.92867097,14.6784868 C2.69450323,16.8430263 2.10270968,18.2665132 2.01166452,21.3725658 C1.81656774,28.2229605 7.29806452,31.19875 10.5713548,32.9782895 L10.9918968,33.2069737 C12.1039484,33.8155921 13.4002581,34.4690789 14.7688258,35.1609211 C17.5225806,36.5525658 20.6419613,38.1316447 23.4477419,39.9111842 C25.0034581,40.9026316 26.7781161,42.0988816 28.1156129,43.4521711 C29.3208774,44.6694079 30.7132903,46.5321711 30.9235613,47.7450658 C30.9857032,48.0859211 31.0297806,48.4086842 31.0586839,48.6945395 C27.9335226,54.3769079 22.2497032,57.4438816 15.8469161,56.9365789 L15.8469161,56.9336842 C12.1061161,56.6319079 8.30823226,54.8393421 5.80954839,52.2246711 C6.61739355,50.9292763 8.54740645,47.0373026 5.69538065,43.0411184 C3.58616774,40.0884868 3.79932903,37.9181579 3.79932903,37.9029605 L4.06957419,35.7565132 L2.68221935,37.41375 C-2.62224516,43.7669737 3.01460645,50.9683553 4.29574194,52.4511842 C3.88242581,54.1475 4.35788387,56.1817763 5.60216774,57.9743421 C7.75545806,61.0753289 11.7874581,62.9619737 16.6684903,63.1465132 C16.8946581,63.1544737 17.1229935,63.1595395 17.346271,63.1595395 C21.7858065,63.1595395 25.9110194,61.5073684 28.7420903,58.5699342 C31.2797935,55.9422368 32.5580387,52.5445395 32.3528258,48.9854605 C33.3427613,47.2160526 33.9475613,45.3091447 34.1556645,43.2907895 L34.173729,43.0852632 C34.2206968,42.5490132 34.2597161,42.0395395 34.2279226,41.7218421 C33.5523097,34.8504605 32.3000774,32.0071053 12.2954323,22.8155921 Z M33.5783226,24.0538158 C33.3391484,22.9871053 32.8044387,21.5353947 31.6222968,19.8810526 C29.375071,16.7359211 30.6063484,13.7232237 31.3498839,12.4271053 C32.7444645,14.1516447 36.2540387,19.2434868 33.5783226,24.0538158 Z M8.45347097,5.97473684 C11.0482581,3.28697368 14.8381935,1.77592105 18.9352258,1.77592105 C19.1454968,1.77592105 19.3557677,1.77881579 19.5667613,1.78605263 C24.0453161,1.95539474 27.7160258,3.64085526 29.6380903,6.41184211 C30.4589419,7.59578947 30.8852645,8.88105263 30.8643097,10.0309868 C28.1524645,7.45539474 24.3827613,5.77210526 20.5408,5.46019737 C14.4494452,4.96881579 8.7808,7.63269737 5.26616774,12.5182895 C5.57543226,10.0903289 6.66941935,7.82230263 8.45347097,5.97473684 Z M2.70534194,39.6065132 C2.94451613,40.6732237 3.47922581,42.1278289 4.66136774,43.7821711 C6.90859355,46.9273026 5.67731613,49.94 4.9316129,51.2361184 C3.5392,49.5108553 0.0296258065,44.4168421 2.70534194,39.6065132 Z M27.829471,57.6877632 C25.101729,60.5108553 21.0523871,62.0298684 16.7169032,61.8764474 C12.2383484,61.7049342 8.56763871,60.01875 6.64557419,57.2477632 C5.82183226,56.0667105 5.39623226,54.7814474 5.4171871,53.6286184 C8.12903226,56.2071053 11.8987355,57.8903947 15.7428645,58.1994079 C21.8342194,58.7038158 27.5028645,56.0298026 31.0146065,51.1413158 C30.7053419,53.5692763 29.6120774,55.8380263 27.829471,57.6877632 Z M29.0195613,42.5569737 C27.5910194,41.1153947 25.746271,39.8692105 24.1284129,38.8394079 C21.2706065,37.0236842 18.1201548,35.4315789 15.3432774,34.0261842 C13.9819355,33.3394079 12.6964645,32.6888158 11.6003097,32.0903289 L11.1768774,31.85875 C7.96356129,30.1132237 3.10854194,27.4775658 3.28268387,21.4080263 C3.34265806,19.3057237 3.66203871,18.0573684 4.21770323,16.8502632 L4.21770323,16.8292763 L4.29285161,16.6859868 C4.26683871,16.7409868 4.24371613,16.7952632 4.21770323,16.8502632 C4.3008,18.8925 5.00242581,24.5509868 10.0496516,27.0071711 C10.1977806,27.0744737 25.0670452,33.8836184 28.5867355,37.895 C30.9011613,40.5306579 31.4416516,43.8914474 31.5428129,45.8613158 C30.8924903,44.6636184 29.8823226,43.4304605 29.0195613,42.5569737 Z M32.9056,42.9752632 L32.8875355,43.18875 C32.7654194,44.3567763 32.4980645,45.4936842 32.0768,46.5835526 C32.0796903,44.7468421 31.7393548,40.7144737 28.9675355,37.5555921 C25.3748645,33.4660526 10.8748387,26.8240789 10.2642581,26.5454605 C6.1339871,24.5343421 5.06890323,20.2363816 4.79865806,17.8351974 C5.92877419,19.9867105 8.22513548,22.3415789 11.7657806,23.9698684 C31.1417806,32.8726316 32.3419871,35.51625 32.9655742,41.8434211 C32.986529,42.0699342 32.9345032,42.6582895 32.9056,42.9752632 Z" id="XMLID_24937_"></path>
                                </g>
                            </g>
                        </g>
                    </g>
                </g>
                <g id="XMLID_24564_">
                    <g id="XMLID_24928_" transform="translate(3.612903, 2.894737)">
                        <path d="M52.1024,103.887039 C23.6984774,103.887039 0.591070968,80.7443421 0.591070968,52.2977632 C0.591070968,23.8511842 23.6984774,0.708486842 52.1024,0.708486842 C80.5063226,0.708486842 103.613729,23.8511842 103.613729,52.2977632 C103.613729,80.7443421 80.5063226,103.887039 52.1024,103.887039 Z M52.1024,2.16526316 C24.5012645,2.16526316 2.04634839,24.65375 2.04634839,52.2970395 C2.04634839,79.9403289 24.5012645,102.428816 52.1024,102.428816 C79.7035355,102.428816 102.158452,79.9403289 102.158452,52.2970395 C102.158452,24.65375 79.7035355,2.16526316 52.1024,2.16526316 Z" id="XMLID_24929_"></path>
                    </g>
                    <g id="XMLID_24924_" transform="translate(3.612903, 0.000000)">
                        <path d="M49.6962065,109.820526 C44.3939097,109.820526 39.0424774,108.942697 33.8167742,107.096579 C7.25832258,97.7111184 -6.14482581,66.7917105 3.93734194,38.1728947 C14.0195097,9.55190789 43.828129,-6.09342105 70.3865806,3.28697368 C96.9450323,12.6724342 110.348903,43.5911184 100.266013,72.2106579 C92.1687742,95.1999342 71.3418323,109.820526 49.6962065,109.820526 Z M54.5071484,1.14703947 C33.1021419,1.14703947 12.5020903,15.6171053 4.48722581,38.3668421 C-5.488,66.6831579 7.75618065,97.2682237 34.0111484,106.546579 C60.2668387,115.827105 89.743071,100.334474 99.7190194,72.0174342 C109.694245,43.7003947 96.4493419,13.1160526 70.1950968,3.83769737 C65.0322581,2.01328947 59.7451355,1.14703947 54.5071484,1.14703947 Z" id="XMLID_24925_"></path>
                    </g>
                    <g id="XMLID_24565_" transform="translate(0.000000, 3.618421)">
                        <g id="XMLID_24921_" transform="translate(12.283871, 27.500000)">
                            <ellipse id="XMLID_24923_" cx="1.38301935" cy="0.991447368" rx="1" ry="1"></ellipse>
                            <ellipse id="XMLID_24922_" cx="1.38374194" cy="0.991447368" rx="1" ry="1"></ellipse>
                        </g>
                        <g id="XMLID_24916_" transform="translate(0.000000, 36.184211)">
                            <ellipse id="XMLID_24920_" cx="1.13300645" cy="1.78315789" rx="1" ry="1"></ellipse>
                            <path d="M1.13300645,2.91717105 C0.508696774,2.91717105 0.000722580645,2.40842105 0.000722580645,1.78315789 C0.000722580645,1.15789474 0.508696774,0.649144737 1.13300645,0.649144737 C1.75731613,0.649144737 2.26529032,1.15789474 2.26529032,1.78315789 C2.26529032,2.40842105 1.75731613,2.91717105 1.13300645,2.91717105 Z M1.13300645,1.62105263 C1.04412903,1.62105263 0.971148387,1.69414474 0.971148387,1.78315789 C0.971148387,1.96190789 1.29486452,1.96190789 1.29486452,1.78315789 C1.29486452,1.69414474 1.22260645,1.62105263 1.13300645,1.62105263 Z" id="XMLID_24917_"></path>
                        </g>
                        <g id="XMLID_24913_" transform="translate(1.445161, 41.250000)">
                            <ellipse id="XMLID_24915_" cx="1.30498065" cy="1.09059211" rx="1" ry="1"></ellipse>
                            <ellipse id="XMLID_24914_" cx="1.30498065" cy="1.09059211" rx="1" ry="1"></ellipse>
                        </g>
                        <g id="XMLID_24908_" transform="translate(25.290323, 10.855263)">
                            <ellipse id="XMLID_24912_" cx="1.80067097" cy="1.27657895" rx="1" ry="1"></ellipse>
                            <path d="M1.79994839,2.49164474 C1.13083871,2.49164474 0.586735484,1.94671053 0.586735484,1.27657895 C0.586735484,0.606447368 1.13083871,0.0615131579 1.79994839,0.0615131579 C2.46905806,0.0615131579 3.01316129,0.606447368 3.01316129,1.27657895 C3.01316129,1.94671053 2.46905806,2.49164474 1.79994839,2.49164474 Z M1.79994839,1.03414474 C1.66627097,1.03414474 1.55716129,1.14342105 1.55716129,1.27730263 C1.55716129,1.54506579 2.0420129,1.54506579 2.0420129,1.27730263 C2.04273548,1.14342105 1.93362581,1.03414474 1.79994839,1.03414474 Z" id="XMLID_24909_"></path>
                        </g>
                        <g id="XMLID_24905_" transform="translate(46.967742, 4.342105)">
                            <ellipse id="XMLID_24907_" cx="0.986322581" cy="1.31059211" rx="1" ry="1"></ellipse>
                            <ellipse id="XMLID_24906_" cx="0.986322581" cy="1.31059211" rx="1" ry="1"></ellipse>
                        </g>
                        <g id="XMLID_24900_" transform="translate(39.741935, 0.000000)">
                            <ellipse id="XMLID_24904_" cx="1.2580129" cy="1.44157895" rx="1" ry="1"></ellipse>
                            <path d="M1.2580129,2.17032895 C0.856980645,2.17032895 0.530374194,1.84322368 0.530374194,1.44157895 C0.530374194,1.03993421 0.856980645,0.712828947 1.2580129,0.712828947 C1.65904516,0.712828947 1.98565161,1.03993421 1.98565161,1.44157895 C1.98565161,1.84322368 1.65904516,2.17032895 1.2580129,2.17032895 Z M1.2580129,1.19842105 C1.12433548,1.19842105 1.01522581,1.30769737 1.01522581,1.44157895 C1.01522581,1.70934211 1.50007742,1.70934211 1.50007742,1.44157895 C1.50007742,1.30769737 1.39096774,1.19842105 1.2580129,1.19842105 Z" id="XMLID_24901_"></path>
                        </g>
                        <g id="XMLID_24895_" transform="translate(107.664516, 43.421053)">
                            <ellipse id="XMLID_24899_" cx="0.938632258" cy="1.43072368" rx="1" ry="1"></ellipse>
                            <path d="M0.938632258,2.15875 C0.5376,2.15875 0.210993548,1.83164474 0.210993548,1.43 C0.210993548,1.02835526 0.5376,0.70125 0.938632258,0.70125 C1.33966452,0.70125 1.66627097,1.02835526 1.66627097,1.43 C1.66627097,1.83164474 1.33966452,2.15875 0.938632258,2.15875 Z M0.938632258,1.18684211 C0.804954839,1.18684211 0.695845161,1.29611842 0.695845161,1.43 C0.695845161,1.69776316 1.18069677,1.69776316 1.18069677,1.43 C1.18069677,1.29611842 1.07230968,1.18684211 0.938632258,1.18684211 Z" id="XMLID_24896_"></path>
                        </g>
                        <g id="XMLID_24890_" transform="translate(109.109677, 49.934211)">
                            <ellipse id="XMLID_24894_" cx="1.6763871" cy="1.15355263" rx="1" ry="1"></ellipse>
                            <path d="M1.6763871,2.12546053 C1.14167742,2.12546053 0.70596129,1.68980263 0.70596129,1.15355263 C0.70596129,0.617302632 1.14167742,0.181644737 1.6763871,0.181644737 C2.21109677,0.181644737 2.6468129,0.617302632 2.6468129,1.15355263 C2.6468129,1.68980263 2.21181935,2.12546053 1.6763871,2.12546053 Z M1.6763871,1.15355263 L1.19153548,1.15355263 L1.6763871,1.15427632 L1.6763871,1.15355263 Z" id="XMLID_24891_"></path>
                        </g>
                        <g id="XMLID_24887_" transform="translate(106.219355, 57.171053)">
                            <ellipse id="XMLID_24889_" cx="1.65615484" cy="1.36776316" rx="1" ry="1"></ellipse>
                            <ellipse id="XMLID_24888_" cx="1.65615484" cy="1.36776316" rx="1" ry="1"></ellipse>
                        </g>
                        <g id="XMLID_24884_" transform="translate(101.161290, 62.236842)">
                            <path d="M1.05352258,1.97131579 C0.696567742,1.97131579 0.406090323,1.68111842 0.406090323,1.32289474 C0.406090323,0.966118421 0.696567742,0.675921053 1.05352258,0.675921053 C1.41047742,0.675921053 1.70023226,0.966118421 1.70023226,1.32289474 C1.70023226,1.68039474 1.41047742,1.97131579 1.05352258,1.97131579 Z" id="XMLID_24885_"></path>
                        </g>
                        <g id="XMLID_24879_" transform="translate(98.270968, 68.026316)">
                            <ellipse id="XMLID_24883_" cx="1.19442581" cy="1.52697368" rx="1" ry="1"></ellipse>
                            <path d="M1.19442581,2.33605263 C0.748593548,2.33605263 0.385858065,1.97276316 0.385858065,1.52625 C0.385858065,1.07973684 0.748593548,0.716447368 1.19442581,0.716447368 C1.64025806,0.716447368 2.00299355,1.07973684 2.00299355,1.52625 C2.00299355,1.97276316 1.64025806,2.33605263 1.19442581,2.33605263 Z M1.19442581,1.36414474 C1.10554839,1.36414474 1.03256774,1.43723684 1.03256774,1.52625 C1.03256774,1.705 1.35556129,1.705 1.35556129,1.52625 C1.35556129,1.43723684 1.28330323,1.36414474 1.19442581,1.36414474 Z" id="XMLID_24880_"></path>
                        </g>
                        <g id="XMLID_24876_" transform="translate(104.774194, 72.368421)">
                            <ellipse id="XMLID_24878_" cx="1.07953548" cy="1.47703947" rx="1" ry="1"></ellipse>
                            <ellipse id="XMLID_24877_" cx="1.07953548" cy="1.47703947" rx="1.05135484" ry="1.05296053"></ellipse>
                        </g>
                        <g id="XMLID_24871_" transform="translate(96.103226, 81.776316)">
                            <ellipse id="XMLID_24875_" cx="1.54415484" cy="1.41263158" rx="1" ry="1"></ellipse>
                            <path d="M1.54415484,2.70875 C0.830245161,2.70875 0.250012903,2.12690789 0.250012903,1.41263158 C0.250012903,0.697631579 0.830245161,0.117236842 1.54415484,0.117236842 C2.25806452,0.117236842 2.83829677,0.698355263 2.83829677,1.41263158 C2.83829677,2.12690789 2.25806452,2.70875 1.54415484,2.70875 Z M1.54415484,1.08842105 C1.36567742,1.08842105 1.22043871,1.23388158 1.22043871,1.41190789 C1.22043871,1.59138158 1.36567742,1.73684211 1.54415484,1.73684211 C1.72263226,1.73684211 1.86787097,1.59138158 1.86787097,1.41190789 C1.86787097,1.23388158 1.72335484,1.08842105 1.54415484,1.08842105 Z" id="XMLID_24872_"></path>
                        </g>
                        <g id="XMLID_24866_" transform="translate(87.432258, 87.565789)">
                            <ellipse id="XMLID_24870_" cx="1.52103226" cy="1.10072368" rx="1" ry="1"></ellipse>
                            <path d="M1.52030968,2.07263158 C0.9856,2.07263158 0.549883871,1.63697368 0.549883871,1.10072368 C0.549883871,0.564473684 0.9856,0.128815789 1.52030968,0.128815789 C2.05501935,0.128815789 2.49073548,0.564473684 2.49073548,1.10072368 C2.49073548,1.63697368 2.05501935,2.07263158 1.52030968,2.07263158 Z M1.5195871,1.1 L1.03473548,1.10072368 L1.5195871,1.10072368 L1.5195871,1.1 Z" id="XMLID_24867_"></path>
                        </g>
                        <g id="XMLID_24861_" transform="translate(80.206452, 90.460526)">
                            <ellipse id="XMLID_24865_" cx="1.22549677" cy="1.52625" rx="1" ry="1"></ellipse>
                            <ellipse id="XMLID_24864_" cx="1.22549677" cy="1.52697368" rx="1" ry="1"></ellipse>
                        </g>
                        <g id="XMLID_24856_" transform="translate(8.670968, 83.223684)">
                            <ellipse id="XMLID_24860_" cx="1.59979355" cy="1.79835526" rx="1" ry="1"></ellipse>
                            <path d="M1.59979355,3.01342105 C0.930683871,3.01342105 0.386580645,2.46848684 0.386580645,1.79835526 C0.386580645,1.12822368 0.930683871,0.583289474 1.59979355,0.583289474 C2.26890323,0.583289474 2.81300645,1.12822368 2.81300645,1.79835526 C2.81300645,2.46848684 2.26890323,3.01342105 1.59979355,3.01342105 Z M1.59979355,1.55592105 C1.46611613,1.55592105 1.35700645,1.66519737 1.35700645,1.79907895 C1.35700645,2.06684211 1.84185806,2.06684211 1.84185806,1.79907895 C1.84258065,1.66447368 1.73347097,1.55592105 1.59979355,1.55592105 Z" id="XMLID_24857_"></path>
                        </g>
                        <g id="XMLID_24851_" transform="translate(2.890323, 65.855263)">
                            <ellipse id="XMLID_24855_" cx="0.992103226" cy="1.10651316" rx="1" ry="1"></ellipse>
                            <path d="M0.992103226,1.91631579 C0.546270968,1.91631579 0.183535484,1.55302632 0.183535484,1.10578947 C0.183535484,0.66 0.546270968,0.295986842 0.992103226,0.295986842 C1.43793548,0.295986842 1.80067097,0.659276316 1.80067097,1.10578947 C1.80067097,1.55302632 1.43793548,1.91631579 0.992103226,1.91631579 Z M0.992103226,0.944407895 C0.903225806,0.944407895 0.830245161,1.01677632 0.830245161,1.10578947 C0.830245161,1.28453947 1.15323871,1.28453947 1.15323871,1.10578947 C1.15396129,1.01677632 1.08098065,0.944407895 0.992103226,0.944407895 Z" id="XMLID_24852_"></path>
                        </g>
                        <g id="XMLID_24848_" transform="translate(7.948387, 64.407895)">
                            <ellipse id="XMLID_24850_" cx="1.02823226" cy="1.01460526" rx="1" ry="1"></ellipse>
                            <ellipse id="XMLID_24849_" cx="1.02823226" cy="1.01460526" rx="1" ry="1"></ellipse>
                        </g>
                        <g id="XMLID_24843_" transform="translate(1.445161, 51.381579)">
                            <ellipse id="XMLID_24847_" cx="0.981987097" cy="1.00157895" rx="1" ry="1"></ellipse>
                            <path d="M0.981987097,1.97348684 C0.447277419,1.97348684 0.0115612903,1.53782895 0.0115612903,1.00157895 C0.0115612903,0.465328947 0.447277419,0.0296710526 0.981987097,0.0296710526 C1.51669677,0.0296710526 1.9524129,0.465328947 1.9524129,1.00157895 C1.95169032,1.53782895 1.51669677,1.97348684 0.981987097,1.97348684 Z M0.981264516,1.00157895 L0.496412903,1.00157895 L0.981264516,1.00230263 L0.981264516,1.00157895 Z" id="XMLID_24844_"></path>
                        </g>
                        <g id="XMLID_24838_" transform="translate(15.174194, 79.605263)">
                            <ellipse id="XMLID_24842_" cx="1.12289032" cy="0.992171053" rx="1" ry="1"></ellipse>
                            <path d="M1.12289032,1.80197368 C0.677058065,1.80197368 0.314322581,1.43868421 0.314322581,0.992171053 C0.314322581,0.544934211 0.677058065,0.181644737 1.12289032,0.181644737 C1.56872258,0.181644737 1.93145806,0.544934211 1.93145806,0.992171053 C1.93145806,1.43868421 1.56872258,1.80197368 1.12289032,1.80197368 Z M1.12289032,0.830065789 C1.0340129,0.830065789 0.961032258,0.903157895 0.961032258,0.992171053 C0.961032258,1.17092105 1.28474839,1.17092105 1.28474839,0.992171053 C1.28474839,0.903157895 1.21249032,0.830065789 1.12289032,0.830065789 Z" id="XMLID_24839_"></path>
                        </g>
                        <g id="XMLID_24833_" transform="translate(19.509677, 94.078947)">
                            <ellipse id="XMLID_24837_" cx="1.03112258" cy="1.22881579" rx="1" ry="1"></ellipse>
                            <path d="M1.03112258,2.20072368 C0.496412903,2.20072368 0.0606967742,1.76506579 0.0606967742,1.22881579 C0.0606967742,0.692565789 0.496412903,0.256907895 1.03112258,0.256907895 C1.56583226,0.256907895 2.00154839,0.692565789 2.00154839,1.22881579 C2.00154839,1.76506579 1.56583226,2.20072368 1.03112258,2.20072368 Z M1.0304,1.22881579 L0.545548387,1.22881579 L1.0304,1.22953947 L1.0304,1.22881579 Z" id="XMLID_24834_"></path>
                        </g>
                        <g id="XMLID_24830_" transform="translate(26.735484, 94.078947)">
                            <path d="M1.01811613,1.73105263 C0.66116129,1.73105263 0.371406452,1.44085526 0.371406452,1.08263158 C0.371406452,0.725855263 0.66116129,0.435657895 1.01811613,0.435657895 C1.37507097,0.435657895 1.66554839,0.725855263 1.66554839,1.08263158 C1.66554839,1.44013158 1.37507097,1.73105263 1.01811613,1.73105263 Z" id="XMLID_24831_"></path>
                        </g>
                        <g id="XMLID_24825_" transform="translate(19.509677, 84.671053)">
                            <ellipse id="XMLID_24829_" cx="0.992825806" cy="1.43361842" rx="1" ry="1"></ellipse>
                            <path d="M0.992103226,2.40480263 C0.457393548,2.40480263 0.0216774194,1.96914474 0.0216774194,1.43289474 C0.0216774194,0.896644737 0.457393548,0.460986842 0.992103226,0.460986842 C1.5268129,0.460986842 1.96252903,0.896644737 1.96252903,1.43289474 C1.96252903,1.96914474 1.52753548,2.40480263 0.992103226,2.40480263 Z M0.992103226,1.43289474 L0.507251613,1.43289474 L0.992103226,1.43361842 L0.992103226,1.43289474 Z" id="XMLID_24826_"></path>
                        </g>
                        <g id="XMLID_24820_" transform="translate(7.225806, 74.539474)">
                            <ellipse id="XMLID_24824_" cx="0.984877419" cy="1.03631579" rx="1" ry="1"></ellipse>
                            <path d="M0.984877419,1.84611842 C0.539045161,1.84611842 0.176309677,1.48282895 0.176309677,1.03631579 C0.176309677,0.589802632 0.539045161,0.226513158 0.984877419,0.226513158 C1.43070968,0.226513158 1.79344516,0.589802632 1.79344516,1.03631579 C1.79344516,1.48282895 1.43070968,1.84611842 0.984877419,1.84611842 Z M0.984877419,0.874210526 C0.895277419,0.874210526 0.823019355,0.947302632 0.823019355,1.03631579 C0.823019355,1.21506579 1.14673548,1.21506579 1.14673548,1.03631579 C1.14673548,0.947302632 1.07375484,0.874210526 0.984877419,0.874210526 Z" id="XMLID_24821_"></path>
                        </g>
                        <g id="XMLID_24817_" transform="translate(93.212903, 14.473684)">
                            <ellipse id="XMLID_24819_" cx="1.31943226" cy="1.38368421" rx="1" ry="1"></ellipse>
                            <ellipse id="XMLID_24818_" cx="1.31943226" cy="1.38368421" rx="1" ry="1"></ellipse>
                        </g>
                        <g id="XMLID_24814_" transform="translate(104.051613, 28.947368)">
                            <ellipse id="XMLID_24816_" cx="0.993548387" cy="1.16440789" rx="1" ry="1"></ellipse>
                            <ellipse id="XMLID_24815_" cx="0.993548387" cy="1.16368421" rx="1" ry="1"></ellipse>
                        </g>
                        <g id="XMLID_24811_" transform="translate(93.935484, 27.500000)">
                            <ellipse id="XMLID_24813_" cx="1.72913548" cy="1.31565789" rx="1" ry="1"></ellipse>
                            <ellipse id="XMLID_24812_" cx="1.72913548" cy="1.31565789" rx="1.05135484" ry="1.05296053"></ellipse>
                        </g>
                        <g id="XMLID_24808_" transform="translate(97.548387, 38.355263)">
                            <ellipse id="XMLID_24810_" cx="1.26957419" cy="1.06960526" rx="1" ry="1"></ellipse>
                            <ellipse id="XMLID_24809_" cx="1.27029677" cy="1.06960526" rx="1" ry="1"></ellipse>
                        </g>
                        <g id="XMLID_24805_" transform="translate(100.438710, 46.315789)">
                            <ellipse id="XMLID_24807_" cx="1.37218065" cy="0.965394737" rx="1" ry="1"></ellipse>
                            <ellipse id="XMLID_24806_" cx="1.37145806" cy="0.965394737" rx="1" ry="1"></ellipse>
                        </g>
                        <g id="XMLID_24802_" transform="translate(8.670968, 40.526316)">
                            <ellipse id="XMLID_24804_" cx="1.43793548" cy="1.73322368" rx="1" ry="1"></ellipse>
                            <ellipse id="XMLID_24803_" cx="1.43793548" cy="1.73322368" rx="1.05135484" ry="1.05296053"></ellipse>
                        </g>
                        <g id="XMLID_24797_" transform="translate(17.341935, 20.263158)">
                            <ellipse id="XMLID_24801_" cx="1.58172903" cy="1.66881579" rx="1" ry="1"></ellipse>
                            <path d="M1.58172903,2.64 C1.04701935,2.64 0.611303226,2.20434211 0.611303226,1.66809211 C0.611303226,1.13184211 1.04701935,0.696184211 1.58172903,0.696184211 C2.11643871,0.696184211 2.55215484,1.13184211 2.55215484,1.66809211 C2.55215484,2.20434211 2.11643871,2.64 1.58172903,2.64 Z M1.58100645,1.66809211 L1.09615484,1.66809211 L1.58100645,1.66881579 L1.58100645,1.66809211 Z" id="XMLID_24798_"></path>
                        </g>
                        <g id="XMLID_24789_" transform="translate(13.006452, 17.368421)">
                            <ellipse id="XMLID_24796_" cx="0.822296774" cy="1.24256579" rx="1" ry="1"></ellipse>
                            <path d="M0.822296774,1.97131579 C0.421264516,1.97131579 0.0946580645,1.64421053 0.0946580645,1.24256579 C0.0946580645,0.840921053 0.421264516,0.513815789 0.822296774,0.513815789 C1.22332903,0.513815789 1.54993548,0.840921053 1.54993548,1.24256579 C1.54993548,1.64421053 1.22405161,1.97131579 0.822296774,1.97131579 Z M0.822296774,0.999407895 C0.688619355,0.999407895 0.579509677,1.10868421 0.579509677,1.24256579 C0.579509677,1.51032895 1.06436129,1.51032895 1.06436129,1.24256579 C1.06508387,1.10868421 0.955974194,0.999407895 0.822296774,0.999407895 Z" id="XMLID_24793_"></path>
                        </g>
                        <g id="XMLID_24781_" transform="translate(108.387097, 62.960526)">
                            <ellipse id="XMLID_24787_" cx="1.42926452" cy="1.40901316" rx="1" ry="1"></ellipse>
                            <path d="M1.42854194,2.54302632 C0.804232258,2.54302632 0.296258065,2.03427632 0.296258065,1.40973684 C0.296258065,0.784473684 0.804232258,0.275723684 1.42854194,0.275723684 C2.05285161,0.275723684 2.56082581,0.784473684 2.56082581,1.40973684 C2.56154839,2.03427632 2.05357419,2.54302632 1.42854194,2.54302632 Z M1.42854194,1.24763158 C1.33966452,1.24763158 1.26668387,1.32072368 1.26668387,1.40973684 C1.26668387,1.58848684 1.5904,1.58848684 1.5904,1.40973684 C1.59112258,1.32 1.51814194,1.24763158 1.42854194,1.24763158 Z" id="XMLID_24782_"></path>
                        </g>
                        <g id="XMLID_24776_" transform="translate(95.380645, 60.789474)">
                            <ellipse id="XMLID_24778_" cx="1.73925161" cy="1.55592105" rx="1" ry="1"></ellipse>
                            <ellipse id="XMLID_24777_" cx="1.73997419" cy="1.55592105" rx="1.05135484" ry="1.05296053"></ellipse>
                        </g>
                        <g id="XMLID_24773_" transform="translate(80.929032, 13.750000)">
                            <ellipse id="XMLID_24775_" cx="1.15034839" cy="1.13546053" rx="1" ry="1"></ellipse>
                            <ellipse id="XMLID_24774_" cx="1.15034839" cy="1.13546053" rx="1" ry="1"></ellipse>
                        </g>
                    </g>
                </g>
            </g>
        </g>
    </g>
</svg>