<?xml version="1.0" encoding="UTF-8" standalone="no"?>
<svg width="765px" height="395px" viewBox="0 0 765 395" version="1.1" xmlns="http://www.w3.org/2000/svg" xmlns:xlink="http://www.w3.org/1999/xlink">
    <!-- Generator: Sketch 46.2 (44496) - http://www.bohemiancoding.com/sketch -->
    <title>ENVELOPE+MONOGRAM</title>
    <desc>Created with Sketch.</desc>
    <defs>
        <linearGradient x1="50.0008605%" y1="6.79333333%" x2="50.0008605%" y2="144.683333%" id="linearGradient-1">
            <stop stop-color="#FBD2CB" offset="0%"></stop>
            <stop stop-color="#FAC5B9" offset="18.65%"></stop>
            <stop stop-color="#F8B4A3" offset="48.37%"></stop>
            <stop stop-color="#F7AB96" offset="76.19%"></stop>
            <stop stop-color="#F6A792" offset="100%"></stop>
        </linearGradient>
        <linearGradient x1="50.0037139%" y1="99.9845205%" x2="50.0037139%" y2="-0.0194051425%" id="linearGradient-2">
            <stop stop-color="#F6A792" offset="0%"></stop>
            <stop stop-color="#F7AB96" offset="23.7%"></stop>
            <stop stop-color="#F8B5A3" offset="51.77%"></stop>
            <stop stop-color="#FAC5BA" offset="81.94%"></stop>
            <stop stop-color="#FBD2CB" offset="100%"></stop>
        </linearGradient>
    </defs>
    <g id="Page-1" stroke="none" stroke-width="1" fill="none" fill-rule="evenodd">
        <g id="ENVELOPE+MONOGRAM" fill-rule="nonzero">
            <g id="Evelope-01" transform="translate(45.000000, 4.000000)">
                <path d="M673.6,5 L359.8,171.2 C345.3,178.4 334.4,178.5 318.6,172 L0.5,0.2 L0.5,359.2 C0.5,376.3 14.4,390.2 31.5,390.2 L643.5,390.2 C660.6,390.2 674.4,376.4 674.5,359.3 L673.6,5 Z" id="XMLID_385_" fill="url(#linearGradient-1)"></path>
                <path d="M645.8,389.2 L30.3,389.2 C19.3,389.2 9,377.9 9,377.9 L232.6,184.5 C311,108.5 370.8,110.4 447.8,184.5 L666,380.1 C666,380.1 656.8,389.2 645.8,389.2 Z" id="Shape_14_" fill="url(#linearGradient-2)"></path>
                <g id="XMLID_24560_" transform="translate(281.000000, 158.000000)" fill="#81455B">
                    <g id="XMLID_24561_">
                        <g id="XMLID_24932_" transform="translate(38.574194, 21.710526)">
                            <g id="XMLID_24955_" transform="translate(3.612903, 16.644737)">
                                <g id="XMLID_24956_">
                                    <g id="XMLID_24957_">
                                        <path d="M0.3,0.3 C0.3,0.4 0.3,0.4 0.2,0.5 L0.2,0.5 L0.3,0.3 Z" id="XMLID_24958_"></path>
                                    </g>
                                </g>
                            </g>
                            <g id="XMLID_24933_" opacity="0.9">
                                <g id="XMLID_24934_">
                                    <g id="XMLID_24950_" transform="translate(3.612903, 14.473684)">
                                        <g id="XMLID_24951_">
                                            <path d="M0.2,2.6 L0.2,2.6 C0.2,2.6 0.2,2.5 0.3,2.5 L0.2,2.6 Z M1.2,0.7 C1.2,0.7 1.1,0.8 1.1,0.8 L1.2,0.8 C1.2,0.8 1.2,0.8 1.2,0.7 Z" id="XMLID_24952_"></path>
                                        </g>
                                    </g>
                                    <g id="XMLID_24945_" transform="translate(4.058065, 14.473684)">
                                        <g id="XMLID_24947_">
                                            <polygon id="XMLID_24948_" points="0.6 0.9 0.7 0.9 0.7 0.9 0.7 0.9 0.7 0.9"></polygon>
                                        </g>
                                    </g>
                                    <g id="XMLID_24935_">
                                        <g id="XMLID_24936_">
                                            <path d="M11.9,23.1 C7.5,21.1 5,17.7 4.8,15.4 L4.7,15.4 L4.7,15.4 L4.7,15.4 L4.8,15.4 C4.8,15.4 4.8,15.3 4.9,15.3 C8,9.6 13.7,6.5 20.1,7.1 C23.8,7.4 27.6,9.2 30.1,11.8 C29.3,13.1 27.4,17 30.2,21 C32.3,24 32.1,26.1 32.1,26.1 L31.8,28.2 L33.2,26.5 C38.5,20.1 32.9,12.9 31.6,11.5 C32,9.8 31.5,7.8 30.3,6 C28.1,2.9 24.1,1 19.2,0.8 C14.5,0.6 10.1,2.3 7.1,5.4 C4.6,8 3.3,11.4 3.5,15 C2.3,17.2 1.7,18.6 1.6,21.7 C1.4,28.6 6.9,31.5 10.2,33.3 L10.6,33.5 C11.7,34.1 13,34.8 14.4,35.5 C17.2,36.9 20.3,38.5 23.1,40.3 C24.7,41.3 26.4,42.5 27.8,43.8 C29,45 30.4,46.9 30.6,48.1 C30.7,48.4 30.7,48.8 30.7,49 C27.6,54.7 21.9,57.7 15.5,57.2 L15.5,57.2 C11.8,56.9 8,55.1 5.5,52.5 C6.3,51.2 8.2,47.3 5.4,43.3 C3.3,40.3 3.5,38.2 3.5,38.2 L3.8,36.1 L2.4,37.8 C-2.9,44.2 2.7,51.4 4,52.8 C3.6,54.5 4.1,56.5 5.3,58.3 C7.5,61.4 11.5,63.3 16.4,63.5 C16.6,63.5 16.9,63.5 17.1,63.5 C21.5,63.5 25.7,61.8 28.5,58.9 C31,56.3 32.3,52.9 32.1,49.3 C33.1,47.5 33.7,45.6 33.9,43.6 L33.9,43.4 C33.9,42.9 34,42.4 34,42 C33.2,35.1 31.9,32.3 11.9,23.1 Z M33.2,24.3 C33,23.2 32.4,21.8 31.2,20.1 C29,17 30.2,13.9 30.9,12.6 C32.4,14.4 35.9,19.5 33.2,24.3 Z M8.1,6.2 C10.7,3.5 14.5,2 18.6,2 C18.8,2 19,2 19.2,2 C23.7,2.2 27.3,3.9 29.3,6.6 C30.1,7.8 30.5,9.1 30.5,10.2 C27.8,7.6 24,5.9 20.2,5.6 C14.1,5.1 8.4,7.8 4.9,12.7 C5.2,10.3 6.3,8.1 8.1,6.2 Z M2.3,39.9 C2.5,41 3.1,42.4 4.3,44.1 C6.5,47.2 5.3,50.3 4.6,51.6 C3.1,49.8 -0.4,44.7 2.3,39.9 Z M27.4,57.9 C24.7,60.7 20.6,62.2 16.3,62.1 C11.8,61.9 8.2,60.2 6.2,57.5 C5.4,56.3 5,55 5,53.9 C7.7,56.5 11.5,58.2 15.3,58.5 C21.4,59 27.1,56.3 30.6,51.4 C30.3,53.8 29.2,56.1 27.4,57.9 Z M28.6,42.8 C27.2,41.4 25.3,40.1 23.7,39.1 C20.8,37.3 17.7,35.7 14.9,34.3 C13.5,33.6 12.3,33 11.2,32.4 L10.8,32.2 C7.6,30.5 2.7,27.8 2.9,21.7 C3,19.6 3.3,18.3 3.8,17.1 L3.8,17.1 L3.9,17 C3.9,17.1 3.9,17.1 3.8,17.2 C3.9,19.2 4.6,24.9 9.6,27.4 C9.7,27.5 24.6,34.3 28.1,38.3 C30.4,40.9 31,44.3 31.1,46.3 C30.5,44.9 29.5,43.7 28.6,42.8 Z M32.5,43.2 L32.5,43.4 C32.4,44.6 32.1,45.7 31.7,46.8 C31.7,45 31.4,40.9 28.6,37.8 C25,33.7 10.5,27.1 9.9,26.8 C5.8,24.8 4.7,20.5 4.4,18.1 C5.5,20.3 7.8,22.6 11.4,24.2 C30.8,33.1 32,35.7 32.6,42.1 C32.6,42.3 32.5,42.9 32.5,43.2 Z" id="XMLID_24937_"></path>
                                        </g>
                                    </g>
                                </g>
                            </g>
                        </g>
                        <g id="XMLID_24564_">
                            <g id="XMLID_24928_" transform="translate(4.612903, 2.894737)">
                                <path d="M51.7,104.1 C23.3,104.1 0.2,81 0.2,52.5 C0.2,24.1 23.3,0.9 51.7,0.9 C80.1,0.9 103.2,24 103.2,52.5 C103.2,81 80.1,104.1 51.7,104.1 Z M51.7,2.4 C24.1,2.4 1.6,24.9 1.6,52.5 C1.6,80.1 24.1,102.6 51.7,102.6 C79.3,102.6 101.8,80.1 101.8,52.5 C101.8,24.9 79.3,2.4 51.7,2.4 Z" id="XMLID_24929_"></path>
                            </g>
                            <g id="XMLID_24924_" transform="translate(4.612903, 0.000000)">
                                <path d="M49.3,110.1 C44,110.1 38.6,109.2 33.4,107.4 C6.8,98 -6.6,67.1 3.5,38.5 C13.6,9.9 43.4,-5.8 69.9,3.6 C96.5,13 109.9,43.9 99.8,72.5 C91.8,95.4 70.9,110.1 49.3,110.1 Z M54.1,1.4 C32.7,1.4 12.1,15.9 4.1,38.6 C-5.9,66.9 7.4,97.5 33.6,106.8 C59.9,116.1 89.3,100.6 99.3,72.3 C109.3,44 96,13.4 69.8,4.1 C64.6,2.3 59.4,1.4 54.1,1.4 Z" id="XMLID_24925_"></path>
                            </g>
                            <g id="XMLID_24565_" transform="translate(0.000000, 3.618421)">
                                <g id="XMLID_24921_" transform="translate(13.283871, 27.500000)">
                                    <circle id="XMLID_24923_" cx="1" cy="1.2" r="1"></circle>
                                    <circle id="XMLID_24922_" cx="1" cy="1.2" r="1"></circle>
                                </g>
                                <g id="XMLID_24916_" transform="translate(0.000000, 37.184211)">
                                    <circle id="XMLID_24920_" cx="1.7" cy="1" r="1"></circle>
                                    <path d="M1.7,2.2 C1.1,2.2 0.6,1.7 0.6,1.1 C0.6,0.5 1.1,-5.68434189e-14 1.7,-5.68434189e-14 C2.3,-5.68434189e-14 2.8,0.5 2.8,1.1 C2.9,1.7 2.4,2.2 1.7,2.2 Z M1.7,0.9 C1.6,0.9 1.5,1 1.5,1.1 C1.5,1.3 1.8,1.3 1.8,1.1 C1.9,0.9 1.8,0.9 1.7,0.9 Z" id="XMLID_24917_"></path>
                                </g>
                                <g id="XMLID_24913_" transform="translate(1.445161, 41.250000)">
                                    <circle id="XMLID_24915_" cx="1.9" cy="1.3" r="1"></circle>
                                    <circle id="XMLID_24914_" cx="1.9" cy="1.3" r="1"></circle>
                                </g>
                                <g id="XMLID_24908_" transform="translate(26.290323, 10.855263)">
                                    <circle id="XMLID_24912_" cx="1.4" cy="1.5" r="1"></circle>
                                    <path d="M1.4,2.7 C0.7,2.7 0.2,2.2 0.2,1.5 C0.2,0.8 0.7,0.3 1.4,0.3 C2.1,0.3 2.6,0.8 2.6,1.5 C2.6,2.2 2.1,2.7 1.4,2.7 Z M1.4,1.3 C1.3,1.3 1.2,1.4 1.2,1.5 C1.2,1.8 1.7,1.8 1.7,1.5 C1.6,1.4 1.5,1.3 1.4,1.3 Z" id="XMLID_24909_"></path>
                                </g>
                                <g id="XMLID_24905_" transform="translate(46.967742, 4.342105)">
                                    <circle id="XMLID_24907_" cx="1.6" cy="1.6" r="1"></circle>
                                    <circle id="XMLID_24906_" cx="1.6" cy="1.6" r="1"></circle>
                                </g>
                                <g id="XMLID_24900_" transform="translate(39.741935, 0.000000)">
                                    <circle id="XMLID_24904_" cx="1.9" cy="1.7" r="1"></circle>
                                    <path d="M1.9,2.4 C1.5,2.4 1.2,2.1 1.2,1.7 C1.2,1.3 1.5,1 1.9,1 C2.3,1 2.6,1.3 2.6,1.7 C2.6,2.1 2.3,2.4 1.9,2.4 Z M1.9,1.4 C1.8,1.4 1.7,1.5 1.7,1.6 C1.7,1.9 2.2,1.9 2.2,1.6 C2.1,1.6 2,1.4 1.9,1.4 Z" id="XMLID_24901_"></path>
                                </g>
                                <g id="XMLID_24895_" transform="translate(107.664516, 43.421053)">
                                    <circle id="XMLID_24899_" cx="1.5" cy="1.7" r="1"></circle>
                                    <path d="M1.5,2.4 C1.1,2.4 0.8,2.1 0.8,1.7 C0.8,1.3 1.1,1 1.5,1 C1.9,1 2.2,1.3 2.2,1.7 C2.2,2.1 1.9,2.4 1.5,2.4 Z M1.5,1.4 C1.4,1.4 1.3,1.5 1.3,1.6 C1.3,1.9 1.8,1.9 1.8,1.6 C1.8,1.5 1.7,1.4 1.5,1.4 Z" id="XMLID_24896_"></path>
                                </g>
                                <g id="XMLID_24890_" transform="translate(110.109677, 49.934211)">
                                    <circle id="XMLID_24894_" cx="1.3" cy="1.4" r="1"></circle>
                                    <path d="M1.3,2.4 C0.8,2.4 0.3,2 0.3,1.4 C0.3,0.9 0.7,0.4 1.3,0.4 C1.9,0.4 2.3,0.8 2.3,1.4 C2.3,1.9 1.8,2.4 1.3,2.4 Z M1.3,1.4 L0.8,1.4 L1.3,1.4 L1.3,1.4 Z" id="XMLID_24891_"></path>
                                </g>
                                <g id="XMLID_24887_" transform="translate(107.219355, 57.171053)">
                                    <circle id="XMLID_24889_" cx="1.3" cy="1.6" r="1"></circle>
                                    <circle id="XMLID_24888_" cx="1.3" cy="1.6" r="1"></circle>
                                </g>
                                <g id="XMLID_24884_" transform="translate(102.161290, 63.236842)">
                                    <path d="M0.7,1.2 C0.3,1.2 0.1,0.9 0.1,0.6 C0.1,0.2 0.4,-5.68434189e-14 0.7,-5.68434189e-14 C1.1,-5.68434189e-14 1.3,0.3 1.3,0.6 C1.3,0.9 1,1.2 0.7,1.2 Z" id="XMLID_24885_"></path>
                                </g>
                                <g id="XMLID_24879_" transform="translate(98.270968, 68.026316)">
                                    <circle id="XMLID_24883_" cx="1.8" cy="1.8" r="1"></circle>
                                    <path d="M1.8,2.6 C1.4,2.6 1,2.2 1,1.8 C1,1.4 1.4,1 1.8,1 C2.2,1 2.6,1.4 2.6,1.8 C2.6,2.2 2.2,2.6 1.8,2.6 Z M1.8,1.6 C1.7,1.6 1.6,1.7 1.6,1.8 C1.6,2 1.9,2 1.9,1.8 C2,1.7 1.9,1.6 1.8,1.6 Z" id="XMLID_24880_"></path>
                                </g>
                                <g id="XMLID_24876_" transform="translate(104.774194, 72.368421)">
                                    <circle id="XMLID_24878_" cx="1.7" cy="1.7" r="1"></circle>
                                    <circle id="XMLID_24877_" cx="1.7" cy="1.7" r="1.1"></circle>
                                </g>
                                <g id="XMLID_24871_" transform="translate(96.103226, 81.776316)">
                                    <circle id="XMLID_24875_" cx="2.2" cy="1.7" r="1"></circle>
                                    <path d="M2.2,3 C1.5,3 0.9,2.4 0.9,1.7 C0.9,1 1.5,0.4 2.2,0.4 C2.9,0.4 3.5,1 3.5,1.7 C3.4,2.4 2.9,3 2.2,3 Z M2.2,1.3 C2,1.3 1.9,1.4 1.9,1.6 C1.9,1.8 2,1.9 2.2,1.9 C2.4,1.9 2.5,1.8 2.5,1.6 C2.5,1.5 2.3,1.3 2.2,1.3 Z" id="XMLID_24872_"></path>
                                </g>
                                <g id="XMLID_24866_" transform="translate(88.432258, 87.565789)">
                                    <circle id="XMLID_24870_" cx="1.1" cy="1.3" r="1"></circle>
                                    <path d="M1.1,2.3 C0.6,2.3 0.1,1.9 0.1,1.3 C0.1,0.8 0.5,0.3 1.1,0.3 C1.6,0.3 2.1,0.7 2.1,1.3 C2.1,1.9 1.7,2.3 1.1,2.3 Z M1.1,1.3 L0.6,1.3 L1.1,1.3 L1.1,1.3 Z" id="XMLID_24867_"></path>
                                </g>
                                <g id="XMLID_24861_" transform="translate(80.206452, 90.460526)">
                                    <circle id="XMLID_24865_" cx="1.8" cy="1.8" r="1"></circle>
                                    <circle id="XMLID_24864_" cx="1.8" cy="1.8" r="1"></circle>
                                </g>
                                <g id="XMLID_24856_" transform="translate(9.670968, 83.223684)">
                                    <circle id="XMLID_24860_" cx="1.2" cy="2" r="1"></circle>
                                    <path d="M1.2,3.3 C0.5,3.3 0,2.8 0,2.1 C0,1.4 0.5,0.9 1.2,0.9 C1.9,0.9 2.4,1.4 2.4,2.1 C2.4,2.7 1.9,3.3 1.2,3.3 Z M1.2,1.8 C1.1,1.8 1,1.9 1,2 C1,2.3 1.5,2.3 1.5,2 C1.4,1.9 1.3,1.8 1.2,1.8 Z" id="XMLID_24857_"></path>
                                </g>
                                <g id="XMLID_24851_" transform="translate(2.890323, 65.855263)">
                                    <circle id="XMLID_24855_" cx="1.6" cy="1.4" r="1"></circle>
                                    <path d="M1.6,2.2 C1.2,2.2 0.8,1.8 0.8,1.4 C0.8,1 1.2,0.6 1.6,0.6 C2,0.6 2.4,1 2.4,1.4 C2.4,1.8 2,2.2 1.6,2.2 Z M1.6,1.2 C1.5,1.2 1.4,1.3 1.4,1.4 C1.4,1.6 1.7,1.6 1.7,1.4 C1.8,1.3 1.7,1.2 1.6,1.2 Z" id="XMLID_24852_"></path>
                                </g>
                                <g id="XMLID_24848_" transform="translate(7.948387, 64.407895)">
                                    <circle id="XMLID_24850_" cx="1.6" cy="1.3" r="1"></circle>
                                    <circle id="XMLID_24849_" cx="1.6" cy="1.3" r="1"></circle>
                                </g>
                                <g id="XMLID_24843_" transform="translate(1.445161, 51.381579)">
                                    <circle id="XMLID_24847_" cx="1.6" cy="1.2" r="1"></circle>
                                    <path d="M1.6,2.2 C1.1,2.2 0.6,1.8 0.6,1.2 C0.6,0.6 1,0.2 1.6,0.2 C2.1,0.2 2.6,0.6 2.6,1.2 C2.6,1.8 2.1,2.2 1.6,2.2 Z M1.6,1.2 L1.1,1.2 L1.6,1.2 L1.6,1.2 Z" id="XMLID_24844_"></path>
                                </g>
                                <g id="XMLID_24838_" transform="translate(15.174194, 79.605263)">
                                    <circle id="XMLID_24842_" cx="1.7" cy="1.2" r="1"></circle>
                                    <path d="M1.7,2 C1.3,2 0.9,1.6 0.9,1.2 C0.9,0.8 1.3,0.4 1.7,0.4 C2.1,0.4 2.5,0.8 2.5,1.2 C2.5,1.7 2.2,2 1.7,2 Z M1.7,1.1 C1.6,1.1 1.5,1.2 1.5,1.3 C1.5,1.5 1.8,1.5 1.8,1.3 C1.9,1.1 1.8,1.1 1.7,1.1 Z" id="XMLID_24839_"></path>
                                </g>
                                <g id="XMLID_24833_" transform="translate(19.509677, 94.078947)">
                                    <circle id="XMLID_24837_" cx="1.6" cy="1.5" r="1"></circle>
                                    <path d="M1.6,2.4 C1.1,2.4 0.6,2 0.6,1.4 C0.6,0.8 1,0.4 1.6,0.4 C2.2,0.4 2.6,0.8 2.6,1.4 C2.6,2 2.2,2.4 1.6,2.4 Z M1.6,1.5 L1.1,1.5 L1.6,1.5 L1.6,1.5 Z" id="XMLID_24834_"></path>
                                </g>
                                <g id="XMLID_24830_" transform="translate(27.735484, 94.078947)">
                                    <path d="M0.6,2 C0.2,2 0,1.7 0,1.4 C0,1 0.3,0.8 0.6,0.8 C1,0.8 1.2,1.1 1.2,1.4 C1.3,1.7 1,2 0.6,2 Z" id="XMLID_24831_"></path>
                                </g>
                                <g id="XMLID_24825_" transform="translate(19.509677, 84.671053)">
                                    <circle id="XMLID_24829_" cx="1.6" cy="1.7" r="1"></circle>
                                    <path d="M1.6,2.6 C1.1,2.6 0.6,2.2 0.6,1.6 C0.6,1 1,0.6 1.6,0.6 C2.1,0.6 2.6,1 2.6,1.6 C2.6,2.2 2.1,2.6 1.6,2.6 Z M1.6,1.7 L1.1,1.7 L1.6,1.7 L1.6,1.7 Z" id="XMLID_24826_"></path>
                                </g>
                                <g id="XMLID_24820_" transform="translate(7.225806, 74.539474)">
                                    <circle id="XMLID_24824_" cx="1.6" cy="1.3" r="1"></circle>
                                    <path d="M1.6,2.1 C1.2,2.1 0.8,1.7 0.8,1.3 C0.8,0.9 1.2,0.5 1.6,0.5 C2,0.5 2.4,0.9 2.4,1.3 C2.4,1.7 2,2.1 1.6,2.1 Z M1.6,1.1 C1.5,1.1 1.4,1.2 1.4,1.3 C1.4,1.5 1.7,1.5 1.7,1.3 C1.8,1.2 1.7,1.1 1.6,1.1 Z" id="XMLID_24821_"></path>
                                </g>
                                <g id="XMLID_24817_" transform="translate(93.212903, 14.473684)">
                                    <circle id="XMLID_24819_" cx="1.9" cy="1.6" r="1"></circle>
                                    <circle id="XMLID_24818_" cx="1.9" cy="1.6" r="1"></circle>
                                </g>
                                <g id="XMLID_24814_" transform="translate(104.051613, 28.947368)">
                                    <circle id="XMLID_24816_" cx="1.6" cy="1.4" r="1"></circle>
                                    <circle id="XMLID_24815_" cx="1.6" cy="1.4" r="1"></circle>
                                </g>
                                <g id="XMLID_24811_" transform="translate(94.935484, 27.500000)">
                                    <circle id="XMLID_24813_" cx="1.3" cy="1.6" r="1"></circle>
                                    <circle id="XMLID_24812_" cx="1.3" cy="1.6" r="1.1"></circle>
                                </g>
                                <g id="XMLID_24808_" transform="translate(97.548387, 38.355263)">
                                    <circle id="XMLID_24810_" cx="1.9" cy="1.3" r="1"></circle>
                                    <circle id="XMLID_24809_" cx="1.9" cy="1.3" r="1"></circle>
                                </g>
                                <g id="XMLID_24805_" transform="translate(101.438710, 46.315789)">
                                    <circle id="XMLID_24807_" cx="1" cy="1.2" r="1"></circle>
                                    <circle id="XMLID_24806_" cx="1" cy="1.2" r="1"></circle>
                                </g>
                                <g id="XMLID_24802_" transform="translate(8.670968, 40.526316)">
                                    <circle id="XMLID_24804_" cx="2" cy="2" r="1"></circle>
                                    <circle id="XMLID_24803_" cx="2" cy="2" r="1.1"></circle>
                                </g>
                                <g id="XMLID_24797_" transform="translate(18.341935, 20.263158)">
                                    <circle id="XMLID_24801_" cx="1.2" cy="1.9" r="1"></circle>
                                    <path d="M1.2,2.9 C0.7,2.9 0.2,2.5 0.2,1.9 C0.2,1.3 0.6,0.9 1.2,0.9 C1.7,0.9 2.2,1.3 2.2,1.9 C2.2,2.5 1.7,2.9 1.2,2.9 Z M1.2,1.9 L0.7,1.9 L1.2,1.9 L1.2,1.9 Z" id="XMLID_24798_"></path>
                                </g>
                                <g id="XMLID_24789_" transform="translate(13.006452, 17.368421)">
                                    <circle id="XMLID_24796_" cx="1.4" cy="1.5" r="1"></circle>
                                    <path d="M1.4,2.2 C1,2.2 0.7,1.9 0.7,1.5 C0.7,1.1 1,0.8 1.4,0.8 C1.8,0.8 2.1,1.1 2.1,1.5 C2.1,1.9 1.8,2.2 1.4,2.2 Z M1.4,1.2 C1.3,1.2 1.2,1.3 1.2,1.4 C1.2,1.7 1.7,1.7 1.7,1.4 C1.7,1.4 1.6,1.2 1.4,1.2 Z" id="XMLID_24793_"></path>
                                </g>
                                <g id="XMLID_24781_" transform="translate(108.387097, 62.960526)">
                                    <circle id="XMLID_24787_" cx="2" cy="1.7" r="1"></circle>
                                    <path d="M2,2.8 C1.4,2.8 0.9,2.3 0.9,1.7 C0.9,1.1 1.4,0.6 2,0.6 C2.6,0.6 3.1,1.1 3.1,1.7 C3.2,2.3 2.7,2.8 2,2.8 Z M2,1.5 C1.9,1.5 1.8,1.6 1.8,1.7 C1.8,1.9 2.1,1.9 2.1,1.7 C2.2,1.6 2.1,1.5 2,1.5 Z" id="XMLID_24782_"></path>
                                </g>
                                <g id="XMLID_24776_" transform="translate(96.380645, 60.789474)">
                                    <circle id="XMLID_24778_" cx="1.3" cy="1.8" r="1"></circle>
                                    <circle id="XMLID_24777_" cx="1.3" cy="1.8" r="1.1"></circle>
                                </g>
                                <g id="XMLID_24773_" transform="translate(80.929032, 13.750000)">
                                    <circle id="XMLID_24775_" cx="1.8" cy="1.4" r="1"></circle>
                                    <circle id="XMLID_24774_" cx="1.8" cy="1.4" r="1"></circle>
                                </g>
                            </g>
                        </g>
                    </g>
                </g>
            </g>
        </g>
    </g>
</svg>