<?xml version="1.0" encoding="UTF-8" standalone="no"?>
<svg width="384px" height="1345px" viewBox="0 0 384 1345" version="1.1" xmlns="http://www.w3.org/2000/svg" xmlns:xlink="http://www.w3.org/1999/xlink">
    <!-- Generator: Sketch 46.2 (44496) - http://www.bohemiancoding.com/sketch -->
    <title>Pillar B + XMLID_8202_ + Dandelions + Shape Mask Copy</title>
    <desc>Created with Sketch.</desc>
    <defs>
        <rect id="path-1" x="0" y="0" width="393" height="1365"></rect>
        <linearGradient x1="51.365768%" y1="-0.34905744%" x2="48.6344217%" y2="100.333235%" id="linearGradient-3">
            <stop stop-color="#6D4059" offset="0%"></stop>
            <stop stop-color="#A14B5E" offset="49.89%"></stop>
            <stop stop-color="#E86365" stop-opacity="0.6" offset="97.43%"></stop>
        </linearGradient>
        <linearGradient x1="51.4110434%" y1="-0.328348968%" x2="48.5890938%" y2="100.329792%" id="linearGradient-4">
            <stop stop-color="#6D4059" offset="0%"></stop>
            <stop stop-color="#A14B5E" offset="49.89%"></stop>
            <stop stop-color="#E86365" stop-opacity="0.6" offset="97.43%"></stop>
        </linearGradient>
        <linearGradient x1="51.4591861%" y1="-0.307603055%" x2="48.5403882%" y2="100.326361%" id="linearGradient-5">
            <stop stop-color="#6D4059" offset="0%"></stop>
            <stop stop-color="#A14B5E" offset="49.89%"></stop>
            <stop stop-color="#E86365" stop-opacity="0.6" offset="97.43%"></stop>
        </linearGradient>
        <linearGradient x1="51.5106036%" y1="-0.286972291%" x2="48.4880528%" y2="100.322926%" id="linearGradient-6">
            <stop stop-color="#6D4059" offset="0%"></stop>
            <stop stop-color="#A14B5E" offset="49.89%"></stop>
            <stop stop-color="#E86365" stop-opacity="0.6" offset="97.43%"></stop>
        </linearGradient>
        <linearGradient x1="51.5661371%" y1="-0.266246254%" x2="48.4322086%" y2="100.319493%" id="linearGradient-7">
            <stop stop-color="#6D4059" offset="0%"></stop>
            <stop stop-color="#A14B5E" offset="49.89%"></stop>
            <stop stop-color="#E86365" stop-opacity="0.6" offset="97.43%"></stop>
        </linearGradient>
        <linearGradient x1="51.6257842%" y1="-0.245582714%" x2="48.3719558%" y2="100.316067%" id="linearGradient-8">
            <stop stop-color="#6D4059" offset="0%"></stop>
            <stop stop-color="#A14B5E" offset="49.89%"></stop>
            <stop stop-color="#E86365" stop-opacity="0.6" offset="97.43%"></stop>
        </linearGradient>
        <linearGradient x1="51.6901964%" y1="-0.224929071%" x2="48.3069367%" y2="100.312638%" id="linearGradient-9">
            <stop stop-color="#6D4059" offset="0%"></stop>
            <stop stop-color="#A14B5E" offset="49.89%"></stop>
            <stop stop-color="#E86365" stop-opacity="0.6" offset="97.43%"></stop>
        </linearGradient>
    </defs>
    <g id="RSVP" stroke="none" stroke-width="1" fill="none" fill-rule="evenodd">
        <g id="Pillar-B-+-XMLID_8202_-+-Dandelions-+-Shape-Mask-Copy" transform="translate(-5.000000, -2.000000)">
            <mask id="mask-2" fill="white">
                <use xlink:href="#path-1"></use>
            </mask>
            <g id="Mask"></g>
            <g id="Pillar-B" mask="url(#mask-2)" fill-rule="nonzero">
                <g transform="translate(203.500000, 674.500000) rotate(-180.000000) translate(-203.500000, -674.500000) translate(18.000000, 2.000000)" id="Shape">
                    <path d="M368.680051,1345 L365.869042,1345 L368.043323,283.900453 C368.043323,134.539213 235.299739,102.256941 128.638807,76.3178937 C94.3220073,67.9727756 61.9082606,60.0901982 38.6815945,49.1282488 C12.5715358,36.8060819 0.411110092,21.7775166 0.411110092,1.83345288 L3.22211927,1.83345288 C3.22211927,20.6465643 14.8871046,34.9131404 39.9310881,46.7333302 C62.8921138,57.5696182 95.1667156,65.418775 129.335235,73.7284674 C182.523745,86.6635677 242.808648,101.324507 289.84667,131.644991 C344.356354,166.781381 370.854332,216.585394 370.854332,283.901121 L368.680051,1345 Z" fill="url(#linearGradient-3)"></path>
                    <path d="M353.92928,1345 L356.103561,286.281334 C356.103561,142.557478 228.528018,107.502635 126.01965,79.3357719 C92.4273872,70.1056768 60.6974183,61.3869166 37.9134862,49.8113654 C12.2981651,36.7973925 0.36753945,21.4553423 0.36753945,1.5279888 L3.17854862,1.5279888 C3.17854862,20.361821 14.636222,34.9545819 39.2374716,47.4532094 C61.7606826,58.8964151 93.3529119,67.5770759 126.799002,76.7670663 C178.021211,90.8418083 236.078389,106.794118 281.229521,137.370605 C333.503048,172.76968 358.913868,221.479503 358.913868,286.281334 L356.739587,1345 L353.92928,1345 Z" fill="url(#linearGradient-4)"></path>
                    <path d="M341.990221,1345 L344.164503,288.662216 C344.164503,150.555691 221.738026,112.791775 123.36676,82.447896 C90.5081706,72.3121033 59.4711156,62.7384447 37.1362422,50.5312446 C12.0226862,36.8047451 0.325374312,21.13651 0.325374312,1.22185631 L3.13638349,1.22185631 C3.13638349,20.0804197 14.3853394,35.0120653 38.5368275,48.212525 C60.6166018,60.2806955 91.5180257,69.8129125 124.233253,79.9045901 C223.47031,110.515834 346.974809,148.612618 346.974809,288.662216 L344.800528,1345 L341.990221,1345 Z" fill="url(#linearGradient-5)"></path>
                    <path d="M330.051163,1345 L332.225444,291.043767 C332.225444,232.119947 309.321341,186.319051 262.203908,151.023579 C221.156147,120.274642 167.77438,101.885972 120.676624,85.6616188 C56.0754165,63.4075247 0.283911927,44.1886874 0.283911927,0.917060644 L3.0949211,0.917060644 C3.0949211,19.8057026 14.1316459,35.089601 37.8270477,49.0166241 C59.4591688,61.7298117 89.6606514,72.1336374 121.635178,83.1483913 C216.711941,115.900557 335.037156,156.660962 335.037156,291.044435 L332.862875,1345 L330.051163,1345 Z" fill="url(#linearGradient-6)"></path>
                    <path d="M320.923113,1345 L318.112104,1345 L320.286385,293.424649 C320.286385,236.963925 298.432194,192.27794 253.475725,156.811354 C214.269877,125.881947 163.098266,106.279441 117.949945,88.9842926 C54.7886771,64.7891314 0.241044037,43.8939179 0.241044037,0.610928155 L3.05205321,0.610928155 C3.05205321,19.5349959 13.873033,35.1865207 37.1060239,49.8655067 C58.2827615,63.2457691 87.775167,74.5432611 118.999154,86.5044857 C164.337921,103.872491 215.726683,123.55788 255.269851,154.753315 C300.910802,190.759309 323.097394,236.119053 323.097394,293.424649 L320.923113,1345 Z" fill="url(#linearGradient-7)"></path>
                    <path d="M308.984054,1345 L306.173045,1345 L308.347327,295.805531 C308.347327,241.799214 287.536723,198.238834 244.725053,162.635893 C207.349875,131.553419 158.383501,110.765151 115.180398,92.4239384 C53.4829633,66.2315635 0.198878899,43.6105115 0.198878899,0.305464077 L3.00988807,0.305464077 C3.00988807,41.8759835 55.5223505,64.1688454 116.326587,89.9828994 C159.710297,108.40098 208.882578,129.276141 246.5754,160.623305 C290.032899,196.764318 311.158336,240.983084 311.158336,295.805531 L308.984054,1345 Z" fill="url(#linearGradient-8)"></path>
                    <path d="M294.233987,1345 L296.408268,298.186413 C296.408268,246.625146 276.632818,204.204407 235.951894,168.499867 C200.396141,137.293737 153.629382,115.350454 112.368686,95.9905824 C52.1568697,67.7388315 0.156011009,43.3398048 0.156011009,0 L2.96702018,0 C2.96702018,41.6774653 54.241233,65.7356021 113.611152,93.5923218 C155.043319,113.032403 202.003336,135.06659 237.857758,166.534737 C279.147266,202.774006 299.218574,245.837088 299.218574,298.186413 L297.044293,1345 L294.233987,1345 Z" fill="url(#linearGradient-9)"></path>
                </g>
            </g>
            <path d="M6.95221207,1036 C30.9532413,1040.06016 70.7246245,1040.57199 95.9928325,1036 C98.3215113,1039.63845 99.3139821,1047.65598 95.9935369,1052.73769 C86.766869,1056.06988 32.0823617,1057.26885 8.87164638,1052.78627 C5.36876681,1051.66404 3.23027046,1041.52526 6.95221207,1036 Z" id="XMLID_8202_" fill="#81455B" fill-rule="nonzero" mask="url(#mask-2)"></path>
        </g>
    </g>
</svg>