<?xml version="1.0" encoding="UTF-8" standalone="no"?>
<svg width="765px" height="447px" viewBox="0 0 765 447" version="1.1" xmlns="http://www.w3.org/2000/svg" xmlns:xlink="http://www.w3.org/1999/xlink">
    <!-- Generator: Sketch 46.2 (44496) - http://www.bohemiancoding.com/sketch -->
    <title>ENVELOPE+MONOGRAM</title>
    <desc>Created with Sketch.</desc>
    <defs>
        <linearGradient x1="50.0008605%" y1="6.79333333%" x2="50.0008605%" y2="144.683333%" id="linearGradient-1">
            <stop stop-color="#FBD2CB" offset="0%"></stop>
            <stop stop-color="#FAC5B9" offset="18.65%"></stop>
            <stop stop-color="#F8B4A3" offset="48.37%"></stop>
            <stop stop-color="#F7AB96" offset="76.19%"></stop>
            <stop stop-color="#F6A792" offset="100%"></stop>
        </linearGradient>
        <linearGradient x1="50.0037139%" y1="99.9845205%" x2="50.0037139%" y2="-0.0194051425%" id="linearGradient-2">
            <stop stop-color="#F6A792" offset="0%"></stop>
            <stop stop-color="#F7AB96" offset="23.7%"></stop>
            <stop stop-color="#F8B5A3" offset="51.77%"></stop>
            <stop stop-color="#FAC5BA" offset="81.94%"></stop>
            <stop stop-color="#FBD2CB" offset="100%"></stop>
        </linearGradient>
    </defs>
    <g id="Page-1" stroke="none" stroke-width="1" fill="none" fill-rule="evenodd">
        <g id="ENVELOPE+MONOGRAM" fill-rule="nonzero">
            <g id="Evelope-01" transform="translate(2.000000, 5.000000)">
                <path d="M759.983828,5.41538462 L405.678487,192.923077 C389.306825,201.046154 376.999852,201.158974 359.160386,193.825641 L0,0 L0,405.025641 C0,424.317949 15.6942136,440 35.0014837,440 L725.998516,440 C745.305786,440 760.887092,424.430769 761,405.138462 L759.983828,5.41538462 Z" id="XMLID_385_" fill="url(#linearGradient-1)"></path>
                <path d="M728.186606,439 L33.0557078,439 C20.6325723,439 9,426.270765 9,426.270765 L261.528463,208.409339 C350.071537,122.796783 417.608219,124.937097 504.570167,208.409339 L751,428.749023 C751,428.749023 740.609741,439 728.186606,439 Z" id="Shape_14_" fill="url(#linearGradient-2)"></path>
                <g id="XMLID_24560_" transform="translate(316.000000, 178.000000)" fill="#81455B">
                    <g id="XMLID_24561_">
                        <g id="XMLID_24932_" transform="translate(43.649746, 24.448791)">
                            <g id="XMLID_24955_" transform="translate(4.088285, 18.744073)">
                                <g id="XMLID_24956_">
                                    <g id="XMLID_24957_">
                                        <path d="M0.339473684,0.337837838 C0.339473684,0.45045045 0.339473684,0.45045045 0.226315789,0.563063063 L0.226315789,0.563063063 L0.339473684,0.337837838 Z" id="XMLID_24958_"></path>
                                    </g>
                                </g>
                            </g>
                            <g id="XMLID_24933_" opacity="0.9">
                                <g id="XMLID_24934_">
                                    <g id="XMLID_24950_" transform="translate(4.088285, 16.299194)">
                                        <g id="XMLID_24951_">
                                            <path d="M0.226315789,2.92792793 L0.226315789,2.92792793 C0.226315789,2.92792793 0.226315789,2.81531532 0.339473684,2.81531532 L0.226315789,2.92792793 Z M1.35789474,0.788288288 C1.35789474,0.788288288 1.24473684,0.900900901 1.24473684,0.900900901 L1.35789474,0.900900901 C1.35789474,0.900900901 1.35789474,0.900900901 1.35789474,0.788288288 Z" id="XMLID_24952_"></path>
                                        </g>
                                    </g>
                                    <g id="XMLID_24945_" transform="translate(4.592021, 17.299194)">
                                        <g id="XMLID_24947_" transform="translate(0.000000, 0.000000)">
                                            <polygon id="XMLID_24948_" points="0.678947368 0.0135135135 0.792105263 0.0135135135 0.792105263 0.0135135135 0.792105263 0.0135135135 0.792105263 0.0135135135"></polygon>
                                        </g>
                                    </g>
                                    <g id="XMLID_24935_">
                                        <g id="XMLID_24936_">
                                            <path d="M13.4657895,26.0135135 C8.48684211,23.7612613 5.65789474,19.9324324 5.43157895,17.3423423 L5.31842105,17.3423423 L5.31842105,17.3423423 L5.31842105,17.3423423 L5.43157895,17.3423423 C5.43157895,17.3423423 5.43157895,17.2297297 5.54473684,17.2297297 C9.05263158,10.8108108 15.5026316,7.31981982 22.7447368,7.9954955 C26.9315789,8.33333333 31.2315789,10.3603604 34.0605263,13.2882883 C33.1552632,14.7522523 31.0052632,19.1441441 34.1736842,23.6486486 C36.55,27.027027 36.3236842,29.3918919 36.3236842,29.3918919 L35.9842105,31.7567568 L37.5684211,29.8423423 C43.5657895,22.6351351 37.2289474,14.527027 35.7578947,12.9504505 C36.2105263,11.036036 35.6447368,8.78378378 34.2868421,6.75675676 C31.7973684,3.26576577 27.2710526,1.12612613 21.7263158,0.900900901 C16.4078947,0.675675676 11.4289474,2.59009009 8.03421053,6.08108108 C5.20526316,9.00900901 3.73421053,12.8378378 3.96052632,16.8918919 C2.60263158,19.3693694 1.92368421,20.9459459 1.81052632,24.4369369 C1.58421053,32.2072072 7.80789474,35.472973 11.5421053,37.5 L11.9947368,37.7252252 C13.2394737,38.4009009 14.7105263,39.1891892 16.2947368,39.9774775 C19.4631579,41.5540541 22.9710526,43.3558559 26.1394737,45.3828829 C27.95,46.509009 29.8736842,47.8603604 31.4578947,49.3243243 C32.8157895,50.6756757 34.4,52.8153153 34.6263158,54.1666667 C34.7394737,54.5045045 34.7394737,54.954955 34.7394737,55.1801802 C31.2315789,61.5990991 24.7815789,64.9774775 17.5394737,64.4144144 L17.5394737,64.4144144 C13.3526316,64.0765766 9.05263158,62.0495495 6.22368421,59.1216216 C7.12894737,57.6576577 9.27894737,53.2657658 6.11052632,48.7612613 C3.73421053,45.3828829 3.96052632,43.018018 3.96052632,43.018018 L4.3,40.6531532 L2.71578947,42.5675676 C-3.28157895,49.7747748 3.05526316,57.8828829 4.52631579,59.4594595 C4.07368421,61.3738739 4.63947368,63.6261261 5.99736842,65.6531532 C8.48684211,69.1441441 13.0131579,71.2837838 18.5578947,71.509009 C18.7842105,71.509009 19.1236842,71.509009 19.35,71.509009 C24.3289474,71.509009 29.0815789,69.5945946 32.25,66.3288288 C35.0789474,63.4009009 36.55,59.5720721 36.3236842,55.518018 C37.4552632,53.490991 38.1342105,51.3513514 38.3605263,49.0990991 L38.3605263,48.8738739 C38.3605263,48.3108108 38.4736842,47.7477477 38.4736842,47.2972973 C37.5684211,39.527027 36.0973684,36.3738739 13.4657895,26.0135135 Z M37.5684211,27.3648649 C37.3421053,26.1261261 36.6631579,24.5495495 35.3052632,22.6351351 C32.8157895,19.1441441 34.1736842,15.6531532 34.9657895,14.1891892 C36.6631579,16.2162162 40.6236842,21.9594595 37.5684211,27.3648649 Z M9.16578947,6.98198198 C12.1078947,3.94144144 16.4078947,2.25225225 21.0473684,2.25225225 C21.2736842,2.25225225 21.5,2.25225225 21.7263158,2.25225225 C26.8184211,2.47747748 30.8921053,4.39189189 33.1552632,7.43243243 C34.0605263,8.78378378 34.5131579,10.2477477 34.5131579,11.4864865 C31.4578947,8.55855856 27.1578947,6.64414414 22.8578947,6.30630631 C15.9552632,5.74324324 9.50526316,8.78378378 5.54473684,14.3018018 C5.88421053,11.5990991 7.12894737,9.12162162 9.16578947,6.98198198 Z M2.60263158,44.9324324 C2.82894737,46.1711712 3.50789474,47.7477477 4.86578947,49.6621622 C7.35526316,53.1531532 5.99736842,56.6441441 5.20526316,58.1081081 C3.50789474,56.0810811 -0.452631579,50.3378378 2.60263158,44.9324324 Z M31.0052632,65.2027027 C27.95,68.3558559 23.3105263,70.045045 18.4447368,69.9324324 C13.3526316,69.7072072 9.27894737,67.7927928 7.01578947,64.7522523 C6.11052632,63.4009009 5.65789474,61.9369369 5.65789474,60.6981982 C8.71315789,63.6261261 13.0131579,65.5405405 17.3131579,65.8783784 C24.2157895,66.4414414 30.6657895,63.4009009 34.6263158,57.8828829 C34.2868421,60.5855856 33.0421053,63.1756757 31.0052632,65.2027027 Z M32.3631579,48.1981982 C30.7789474,46.6216216 28.6289474,45.1576577 26.8184211,44.0315315 C23.5368421,42.0045045 20.0289474,40.2027027 16.8605263,38.6261261 C15.2763158,37.8378378 13.9184211,37.1621622 12.6736842,36.4864865 L12.2210526,36.2612613 C8.6,34.3468468 3.05526316,31.3063063 3.28157895,24.4369369 C3.39473684,22.0720721 3.73421053,20.6081081 4.3,19.2567568 L4.3,19.2567568 L4.41315789,19.1441441 C4.41315789,19.2567568 4.41315789,19.2567568 4.3,19.3693694 C4.41315789,21.6216216 5.20526316,28.0405405 10.8631579,30.8558559 C10.9763158,30.9684685 27.8368421,38.6261261 31.7973684,43.1306306 C34.4,46.0585586 35.0789474,49.8873874 35.1921053,52.1396396 C34.5131579,50.5630631 33.3815789,49.2117117 32.3631579,48.1981982 Z M36.7763158,48.6486486 L36.7763158,48.8738739 C36.6631579,50.2252252 36.3236842,51.463964 35.8710526,52.7027027 C35.8710526,50.6756757 35.5315789,46.0585586 32.3631579,42.5675676 C28.2894737,37.9504505 11.8815789,30.518018 11.2026316,30.1801802 C6.56315789,27.9279279 5.31842105,23.0855856 4.97894737,20.3828829 C6.22368421,22.8603604 8.82631579,25.4504505 12.9,27.2522523 C34.8526316,37.2747748 36.2105263,40.2027027 36.8894737,47.4099099 C36.8894737,47.6351351 36.7763158,48.3108108 36.7763158,48.6486486 Z" id="XMLID_24937_"></path>
                                        </g>
                                    </g>
                                </g>
                            </g>
                        </g>
                        <g id="XMLID_24564_">
                            <g id="XMLID_24928_" transform="translate(5.219864, 4.259839)">
                                <path d="M58.5026316,116.22973 C26.3657895,116.22973 0.226315789,90.2162162 0.226315789,58.1216216 C0.226315789,26.1396396 26.3657895,0.0135135135 58.5026316,0.0135135135 C90.6394737,0.0135135135 116.778947,26.027027 116.778947,58.1216216 C116.778947,90.2162162 90.6394737,116.22973 58.5026316,116.22973 Z M58.5026316,1.7027027 C27.2710526,1.7027027 1.81052632,27.0405405 1.81052632,58.1216216 C1.81052632,89.2027027 27.2710526,114.540541 58.5026316,114.540541 C89.7342105,114.540541 115.194737,89.2027027 115.194737,58.1216216 C115.194737,27.0405405 89.7342105,1.7027027 58.5026316,1.7027027 Z" id="XMLID_24929_"></path>
                            </g>
                            <g id="XMLID_24924_" transform="translate(5.219864, 0.000000)">
                                <path d="M55.7868421,123.986486 C49.7894737,123.986486 43.6789474,122.972973 37.7947368,120.945946 C7.69473684,110.36036 -7.46842105,75.5630631 3.96052632,43.3558559 C15.3894737,11.1486486 49.1105263,-6.53153153 79.0973684,4.05405405 C109.197368,14.6396396 124.360526,49.4369369 112.931579,81.6441441 C103.878947,107.432432 80.2289474,123.986486 55.7868421,123.986486 Z M61.2184211,1.57657658 C37.0026316,1.57657658 13.6921053,17.9054054 4.63947368,43.4684685 C-6.67631579,75.3378378 8.37368421,109.797297 38.0210526,120.27027 C67.7815789,130.743243 101.05,113.288288 112.365789,81.4189189 C123.681579,49.5495495 108.631579,15.0900901 78.9842105,4.61711712 C73.1,2.59009009 67.2157895,1.57657658 61.2184211,1.57657658 Z" id="XMLID_24925_"></path>
                            </g>
                            <g id="XMLID_24565_" transform="translate(0.000000, 4.074798)">
                                <g id="XMLID_24921_" transform="translate(15.031749, 30.968468)">
                                    <ellipse id="XMLID_24923_" cx="1.13157895" cy="1.35135135" rx="1.13157895" ry="1.12612613"></ellipse>
                                    <ellipse id="XMLID_24922_" cx="1.13157895" cy="1.35135135" rx="1.13157895" ry="1.12612613"></ellipse>
                                </g>
                                <g id="XMLID_24916_" transform="translate(0.000000, 41.874111)">
                                    <ellipse id="XMLID_24920_" cx="1.92368421" cy="1.12612613" rx="1.13157895" ry="1.12612613"></ellipse>
                                    <path d="M1.92368421,2.47747748 C1.24473684,2.47747748 0.678947368,1.91441441 0.678947368,1.23873874 C0.678947368,0.563063063 1.24473684,-5.68434189e-14 1.92368421,-5.68434189e-14 C2.60263158,-5.68434189e-14 3.16842105,0.563063063 3.16842105,1.23873874 C3.28157895,1.91441441 2.71578947,2.47747748 1.92368421,2.47747748 Z M1.92368421,1.01351351 C1.81052632,1.01351351 1.69736842,1.12612613 1.69736842,1.23873874 C1.69736842,1.46396396 2.03684211,1.46396396 2.03684211,1.23873874 C2.15,1.01351351 2.03684211,1.01351351 1.92368421,1.01351351 Z" id="XMLID_24917_"></path>
                                </g>
                                <g id="XMLID_24913_" transform="translate(2.635314, 46.452703)">
                                    <ellipse id="XMLID_24915_" cx="1.15" cy="1.46396396" rx="1.13157895" ry="1.12612613"></ellipse>
                                    <ellipse id="XMLID_24914_" cx="1.15" cy="1.46396396" rx="1.13157895" ry="1.12612613"></ellipse>
                                </g>
                                <g id="XMLID_24908_" transform="translate(29.749576, 12.224395)">
                                    <ellipse id="XMLID_24912_" cx="1.58421053" cy="1.68918919" rx="1.13157895" ry="1.12612613"></ellipse>
                                    <path d="M1.58421053,3.04054054 C0.792105263,3.04054054 0.226315789,2.47747748 0.226315789,1.68918919 C0.226315789,0.900900901 0.792105263,0.337837838 1.58421053,0.337837838 C2.37631579,0.337837838 2.94210526,0.900900901 2.94210526,1.68918919 C2.94210526,2.47747748 2.37631579,3.04054054 1.58421053,3.04054054 Z M1.58421053,1.46396396 C1.47105263,1.46396396 1.35789474,1.57657658 1.35789474,1.68918919 C1.35789474,2.02702703 1.92368421,2.02702703 1.92368421,1.68918919 C1.81052632,1.57657658 1.69736842,1.46396396 1.58421053,1.46396396 Z" id="XMLID_24909_"></path>
                                </g>
                                <g id="XMLID_24905_" transform="translate(53.147708, 4.889758)">
                                    <ellipse id="XMLID_24907_" cx="1.81052632" cy="1.8018018" rx="1.13157895" ry="1.12612613"></ellipse>
                                    <ellipse id="XMLID_24906_" cx="1.81052632" cy="1.8018018" rx="1.13157895" ry="1.12612613"></ellipse>
                                </g>
                                <g id="XMLID_24900_" transform="translate(45.971137, 0.000000)">
                                    <ellipse id="XMLID_24904_" cx="1.15" cy="1.91441441" rx="1.13157895" ry="1.12612613"></ellipse>
                                    <path d="M1.15,2.7027027 C0.697368421,2.7027027 0.357894737,2.36486486 0.357894737,1.91441441 C0.357894737,1.46396396 0.697368421,1.12612613 1.15,1.12612613 C1.60263158,1.12612613 1.94210526,1.46396396 1.94210526,1.91441441 C1.94210526,2.36486486 1.60263158,2.7027027 1.15,2.7027027 Z M1.15,1.57657658 C1.03684211,1.57657658 0.923684211,1.68918919 0.923684211,1.8018018 C0.923684211,2.13963964 1.48947368,2.13963964 1.48947368,1.8018018 C1.37631579,1.8018018 1.26315789,1.57657658 1.15,1.57657658 Z" id="XMLID_24901_"></path>
                                </g>
                                <g id="XMLID_24895_" transform="translate(121.830900, 48.897582)">
                                    <ellipse id="XMLID_24899_" cx="1.69736842" cy="1.91441441" rx="1.13157895" ry="1.12612613"></ellipse>
                                    <path d="M1.69736842,2.7027027 C1.24473684,2.7027027 0.905263158,2.36486486 0.905263158,1.91441441 C0.905263158,1.46396396 1.24473684,1.12612613 1.69736842,1.12612613 C2.15,1.12612613 2.48947368,1.46396396 2.48947368,1.91441441 C2.48947368,2.36486486 2.15,2.7027027 1.69736842,2.7027027 Z M1.69736842,1.57657658 C1.58421053,1.57657658 1.47105263,1.68918919 1.47105263,1.8018018 C1.47105263,2.13963964 2.03684211,2.13963964 2.03684211,1.8018018 C2.03684211,1.68918919 1.92368421,1.57657658 1.69736842,1.57657658 Z" id="XMLID_24896_"></path>
                                </g>
                                <g id="XMLID_24890_" transform="translate(124.597792, 56.232220)">
                                    <ellipse id="XMLID_24894_" cx="1.47105263" cy="1.57657658" rx="1.13157895" ry="1.12612613"></ellipse>
                                    <path d="M1.47105263,2.7027027 C0.905263158,2.7027027 0.339473684,2.25225225 0.339473684,1.57657658 C0.339473684,1.01351351 0.792105263,0.45045045 1.47105263,0.45045045 C2.15,0.45045045 2.60263158,0.900900901 2.60263158,1.57657658 C2.60263158,2.13963964 2.03684211,2.7027027 1.47105263,2.7027027 Z M1.47105263,1.57657658 L0.905263158,1.57657658 L1.47105263,1.57657658 L1.47105263,1.57657658 Z" id="XMLID_24891_"></path>
                                </g>
                                <g id="XMLID_24887_" transform="translate(121.327165, 64.381816)">
                                    <ellipse id="XMLID_24889_" cx="1.47105263" cy="1.8018018" rx="1.13157895" ry="1.12612613"></ellipse>
                                    <ellipse id="XMLID_24888_" cx="1.47105263" cy="1.8018018" rx="1.13157895" ry="1.12612613"></ellipse>
                                </g>
                                <g id="XMLID_24884_" transform="translate(115.603565, 71.212660)">
                                    <path d="M0.792105263,1.35135135 C0.339473684,1.35135135 0.113157895,1.01351351 0.113157895,0.675675676 C0.113157895,0.225225225 0.452631579,-5.68434189e-14 0.792105263,-5.68434189e-14 C1.24473684,-5.68434189e-14 1.47105263,0.337837838 1.47105263,0.675675676 C1.47105263,1.01351351 1.13157895,1.35135135 0.792105263,1.35135135 Z" id="XMLID_24885_"></path>
                                </g>
                                <g id="XMLID_24879_" transform="translate(111.201359, 76.606212)">
                                    <ellipse id="XMLID_24883_" cx="2.03684211" cy="2.02702703" rx="1.13157895" ry="1.12612613"></ellipse>
                                    <path d="M2.03684211,2.92792793 C1.58421053,2.92792793 1.13157895,2.47747748 1.13157895,2.02702703 C1.13157895,1.57657658 1.58421053,1.12612613 2.03684211,1.12612613 C2.48947368,1.12612613 2.94210526,1.57657658 2.94210526,2.02702703 C2.94210526,2.47747748 2.48947368,2.92792793 2.03684211,2.92792793 Z M2.03684211,1.8018018 C1.92368421,1.8018018 1.81052632,1.91441441 1.81052632,2.02702703 C1.81052632,2.25225225 2.15,2.25225225 2.15,2.02702703 C2.26315789,1.91441441 2.15,1.8018018 2.03684211,1.8018018 Z" id="XMLID_24880_"></path>
                                </g>
                                <g id="XMLID_24876_" transform="translate(118.560272, 81.495970)">
                                    <ellipse id="XMLID_24878_" cx="1.92368421" cy="1.91441441" rx="1.13157895" ry="1.12612613"></ellipse>
                                    <ellipse id="XMLID_24877_" cx="1.92368421" cy="1.91441441" rx="1.24473684" ry="1.23873874"></ellipse>
                                </g>
                                <g id="XMLID_24871_" transform="translate(109.748387, 92.090446)">
                                    <ellipse id="XMLID_24875_" cx="1.48947368" cy="1.91441441" rx="1.13157895" ry="1.12612613"></ellipse>
                                    <path d="M1.48947368,3.37837838 C0.697368421,3.37837838 0.0184210526,2.7027027 0.0184210526,1.91441441 C0.0184210526,1.12612613 0.697368421,0.45045045 1.48947368,0.45045045 C2.28157895,0.45045045 2.96052632,1.12612613 2.96052632,1.91441441 C2.84736842,2.7027027 2.28157895,3.37837838 1.48947368,3.37837838 Z M1.48947368,1.46396396 C1.26315789,1.46396396 1.15,1.57657658 1.15,1.8018018 C1.15,2.02702703 1.26315789,2.13963964 1.48947368,2.13963964 C1.71578947,2.13963964 1.82894737,2.02702703 1.82894737,1.8018018 C1.82894737,1.68918919 1.60263158,1.46396396 1.48947368,1.46396396 Z" id="XMLID_24872_"></path>
                                </g>
                                <g id="XMLID_24866_" transform="translate(100.068081, 98.610123)">
                                    <ellipse id="XMLID_24870_" cx="1.24473684" cy="1.46396396" rx="1.13157895" ry="1.12612613"></ellipse>
                                    <path d="M1.24473684,2.59009009 C0.678947368,2.59009009 0.113157895,2.13963964 0.113157895,1.46396396 C0.113157895,0.900900901 0.565789474,0.337837838 1.24473684,0.337837838 C1.81052632,0.337837838 2.37631579,0.788288288 2.37631579,1.46396396 C2.37631579,2.13963964 1.92368421,2.59009009 1.24473684,2.59009009 Z M1.24473684,1.46396396 L0.678947368,1.46396396 L1.24473684,1.46396396 L1.24473684,1.46396396 Z" id="XMLID_24867_"></path>
                                </g>
                                <g id="XMLID_24861_" transform="translate(90.759933, 101.869962)">
                                    <ellipse id="XMLID_24865_" cx="2.03684211" cy="2.02702703" rx="1.13157895" ry="1.12612613"></ellipse>
                                    <ellipse id="XMLID_24864_" cx="2.03684211" cy="2.02702703" rx="1.13157895" ry="1.12612613"></ellipse>
                                </g>
                                <g id="XMLID_24856_" transform="translate(10.943464, 94.720365)">
                                    <ellipse id="XMLID_24860_" cx="1.35789474" cy="1.25225225" rx="1.13157895" ry="1.12612613"></ellipse>
                                    <path d="M1.35789474,2.71621622 C0.565789474,2.71621622 0,2.15315315 0,1.36486486 C0,0.576576577 0.565789474,0.0135135135 1.35789474,0.0135135135 C2.15,0.0135135135 2.71578947,0.576576577 2.71578947,1.36486486 C2.71578947,2.04054054 2.15,2.71621622 1.35789474,2.71621622 Z M1.35789474,1.02702703 C1.24473684,1.02702703 1.13157895,1.13963964 1.13157895,1.25225225 C1.13157895,1.59009009 1.69736842,1.59009009 1.69736842,1.25225225 C1.58421053,1.13963964 1.47105263,1.02702703 1.35789474,1.02702703 Z" id="XMLID_24857_"></path>
                                </g>
                                <g id="XMLID_24851_" transform="translate(3.270629, 74.161332)">
                                    <ellipse id="XMLID_24855_" cx="1.81052632" cy="1.57657658" rx="1.13157895" ry="1.12612613"></ellipse>
                                    <path d="M1.81052632,2.47747748 C1.35789474,2.47747748 0.905263158,2.02702703 0.905263158,1.57657658 C0.905263158,1.12612613 1.35789474,0.675675676 1.81052632,0.675675676 C2.26315789,0.675675676 2.71578947,1.12612613 2.71578947,1.57657658 C2.71578947,2.02702703 2.26315789,2.47747748 1.81052632,2.47747748 Z M1.81052632,1.35135135 C1.69736842,1.35135135 1.58421053,1.46396396 1.58421053,1.57657658 C1.58421053,1.8018018 1.92368421,1.8018018 1.92368421,1.57657658 C2.03684211,1.46396396 1.92368421,1.35135135 1.81052632,1.35135135 Z" id="XMLID_24852_"></path>
                                </g>
                                <g id="XMLID_24848_" transform="translate(8.994227, 72.531413)">
                                    <ellipse id="XMLID_24850_" cx="1.81052632" cy="1.46396396" rx="1.13157895" ry="1.12612613"></ellipse>
                                    <ellipse id="XMLID_24849_" cx="1.81052632" cy="1.46396396" rx="1.13157895" ry="1.12612613"></ellipse>
                                </g>
                                <g id="XMLID_24843_" transform="translate(1.635314, 57.862139)">
                                    <ellipse id="XMLID_24847_" cx="1.81052632" cy="1.35135135" rx="1.13157895" ry="1.12612613"></ellipse>
                                    <path d="M1.81052632,2.47747748 C1.24473684,2.47747748 0.678947368,2.02702703 0.678947368,1.35135135 C0.678947368,0.675675676 1.13157895,0.225225225 1.81052632,0.225225225 C2.37631579,0.225225225 2.94210526,0.675675676 2.94210526,1.35135135 C2.94210526,2.02702703 2.37631579,2.47747748 1.81052632,2.47747748 Z M1.81052632,1.35135135 L1.24473684,1.35135135 L1.81052632,1.35135135 L1.81052632,1.35135135 Z" id="XMLID_24844_"></path>
                                </g>
                                <g id="XMLID_24838_" transform="translate(17.170798, 89.645566)">
                                    <ellipse id="XMLID_24842_" cx="1.92368421" cy="1.35135135" rx="1.13157895" ry="1.12612613"></ellipse>
                                    <path d="M1.92368421,2.25225225 C1.47105263,2.25225225 1.01842105,1.8018018 1.01842105,1.35135135 C1.01842105,0.900900901 1.47105263,0.45045045 1.92368421,0.45045045 C2.37631579,0.45045045 2.82894737,0.900900901 2.82894737,1.35135135 C2.82894737,1.91441441 2.48947368,2.25225225 1.92368421,2.25225225 Z M1.92368421,1.23873874 C1.81052632,1.23873874 1.69736842,1.35135135 1.69736842,1.46396396 C1.69736842,1.68918919 2.03684211,1.68918919 2.03684211,1.46396396 C2.15,1.23873874 2.03684211,1.23873874 1.92368421,1.23873874 Z" id="XMLID_24839_"></path>
                                </g>
                                <g id="XMLID_24833_" transform="translate(22.076740, 105.944760)">
                                    <ellipse id="XMLID_24837_" cx="1.81052632" cy="1.68918919" rx="1.13157895" ry="1.12612613"></ellipse>
                                    <path d="M1.81052632,2.7027027 C1.24473684,2.7027027 0.678947368,2.25225225 0.678947368,1.57657658 C0.678947368,0.900900901 1.13157895,0.45045045 1.81052632,0.45045045 C2.48947368,0.45045045 2.94210526,0.900900901 2.94210526,1.57657658 C2.94210526,2.25225225 2.48947368,2.7027027 1.81052632,2.7027027 Z M1.81052632,1.68918919 L1.24473684,1.68918919 L1.81052632,1.68918919 L1.81052632,1.68918919 Z" id="XMLID_24834_"></path>
                                </g>
                                <g id="XMLID_24830_" transform="translate(31.384890, 105.944760)">
                                    <path d="M0.678947368,2.25225225 C0.226315789,2.25225225 0,1.91441441 0,1.57657658 C0,1.12612613 0.339473684,0.900900901 0.678947368,0.900900901 C1.13157895,0.900900901 1.35789474,1.23873874 1.35789474,1.57657658 C1.47105263,1.91441441 1.13157895,2.25225225 0.678947368,2.25225225 Z" id="XMLID_24831_"></path>
                                </g>
                                <g id="XMLID_24825_" transform="translate(22.076740, 95.350285)">
                                    <ellipse id="XMLID_24829_" cx="1.81052632" cy="1.91441441" rx="1.13157895" ry="1.12612613"></ellipse>
                                    <path d="M1.81052632,2.92792793 C1.24473684,2.92792793 0.678947368,2.47747748 0.678947368,1.8018018 C0.678947368,1.12612613 1.13157895,0.675675676 1.81052632,0.675675676 C2.37631579,0.675675676 2.94210526,1.12612613 2.94210526,1.8018018 C2.94210526,2.47747748 2.37631579,2.92792793 1.81052632,2.92792793 Z M1.81052632,1.91441441 L1.24473684,1.91441441 L1.81052632,1.91441441 L1.81052632,1.91441441 Z" id="XMLID_24826_"></path>
                                </g>
                                <g id="XMLID_24820_" transform="translate(8.176570, 83.940849)">
                                    <ellipse id="XMLID_24824_" cx="1.81052632" cy="1.46396396" rx="1.13157895" ry="1.12612613"></ellipse>
                                    <path d="M1.81052632,2.36486486 C1.35789474,2.36486486 0.905263158,1.91441441 0.905263158,1.46396396 C0.905263158,1.01351351 1.35789474,0.563063063 1.81052632,0.563063063 C2.26315789,0.563063063 2.71578947,1.01351351 2.71578947,1.46396396 C2.71578947,1.91441441 2.26315789,2.36486486 1.81052632,2.36486486 Z M1.81052632,1.23873874 C1.69736842,1.23873874 1.58421053,1.35135135 1.58421053,1.46396396 C1.58421053,1.68918919 1.92368421,1.68918919 1.92368421,1.46396396 C2.03684211,1.35135135 1.92368421,1.23873874 1.81052632,1.23873874 Z" id="XMLID_24821_"></path>
                                </g>
                                <g id="XMLID_24817_" transform="translate(106.477759, 16.299194)">
                                    <ellipse id="XMLID_24819_" cx="1.15" cy="1.8018018" rx="1.13157895" ry="1.12612613"></ellipse>
                                    <ellipse id="XMLID_24818_" cx="1.15" cy="1.8018018" rx="1.13157895" ry="1.12612613"></ellipse>
                                </g>
                                <g id="XMLID_24814_" transform="translate(117.742615, 32.598387)">
                                    <ellipse id="XMLID_24816_" cx="1.81052632" cy="1.57657658" rx="1.13157895" ry="1.12612613"></ellipse>
                                    <ellipse id="XMLID_24815_" cx="1.81052632" cy="1.57657658" rx="1.13157895" ry="1.12612613"></ellipse>
                                </g>
                                <g id="XMLID_24811_" transform="translate(107.426995, 30.968468)">
                                    <ellipse id="XMLID_24813_" cx="1.47105263" cy="1.8018018" rx="1.13157895" ry="1.12612613"></ellipse>
                                    <ellipse id="XMLID_24812_" cx="1.47105263" cy="1.8018018" rx="1.24473684" ry="1.23873874"></ellipse>
                                </g>
                                <g id="XMLID_24808_" transform="translate(111.383701, 43.192864)">
                                    <ellipse id="XMLID_24810_" cx="1.15" cy="1.46396396" rx="1.13157895" ry="1.12612613"></ellipse>
                                    <ellipse id="XMLID_24809_" cx="1.15" cy="1.46396396" rx="1.13157895" ry="1.12612613"></ellipse>
                                </g>
                                <g id="XMLID_24805_" transform="translate(114.785909, 52.157420)">
                                    <ellipse id="XMLID_24807_" cx="1.13157895" cy="1.35135135" rx="1.13157895" ry="1.12612613"></ellipse>
                                    <ellipse id="XMLID_24806_" cx="1.13157895" cy="1.35135135" rx="1.13157895" ry="1.12612613"></ellipse>
                                </g>
                                <g id="XMLID_24802_" transform="translate(10.811885, 46.637743)">
                                    <ellipse id="XMLID_24804_" cx="1.26315789" cy="1.25225225" rx="1.13157895" ry="1.12612613"></ellipse>
                                    <ellipse id="XMLID_24803_" cx="1.26315789" cy="1.25225225" rx="1.24473684" ry="1.23873874"></ellipse>
                                </g>
                                <g id="XMLID_24797_" transform="translate(20.755348, 23.818872)">
                                    <ellipse id="XMLID_24801_" cx="1.35789474" cy="1.13963964" rx="1.13157895" ry="1.12612613"></ellipse>
                                    <path d="M1.35789474,2.26576577 C0.792105263,2.26576577 0.226315789,1.81531532 0.226315789,1.13963964 C0.226315789,0.463963964 0.678947368,0.0135135135 1.35789474,0.0135135135 C1.92368421,0.0135135135 2.48947368,0.463963964 2.48947368,1.13963964 C2.48947368,1.81531532 1.92368421,2.26576577 1.35789474,2.26576577 Z M1.35789474,1.13963964 L0.792105263,1.13963964 L1.35789474,1.13963964 L1.35789474,1.13963964 Z" id="XMLID_24798_"></path>
                                </g>
                                <g id="XMLID_24789_" transform="translate(14.717827, 19.559033)">
                                    <ellipse id="XMLID_24796_" cx="1.58421053" cy="1.68918919" rx="1.13157895" ry="1.12612613"></ellipse>
                                    <path d="M1.58421053,2.47747748 C1.13157895,2.47747748 0.792105263,2.13963964 0.792105263,1.68918919 C0.792105263,1.23873874 1.13157895,0.900900901 1.58421053,0.900900901 C2.03684211,0.900900901 2.37631579,1.23873874 2.37631579,1.68918919 C2.37631579,2.13963964 2.03684211,2.47747748 1.58421053,2.47747748 Z M1.58421053,1.35135135 C1.47105263,1.35135135 1.35789474,1.46396396 1.35789474,1.57657658 C1.35789474,1.91441441 1.92368421,1.91441441 1.92368421,1.57657658 C1.92368421,1.57657658 1.81052632,1.35135135 1.58421053,1.35135135 Z" id="XMLID_24793_"></path>
                                </g>
                                <g id="XMLID_24781_" transform="translate(123.648557, 70.901493)">
                                    <ellipse id="XMLID_24787_" cx="1.26315789" cy="1.91441441" rx="1.13157895" ry="1.12612613"></ellipse>
                                    <path d="M1.26315789,3.15315315 C0.584210526,3.15315315 0.0184210526,2.59009009 0.0184210526,1.91441441 C0.0184210526,1.23873874 0.584210526,0.675675676 1.26315789,0.675675676 C1.94210526,0.675675676 2.50789474,1.23873874 2.50789474,1.91441441 C2.62105263,2.59009009 2.05526316,3.15315315 1.26315789,3.15315315 Z M1.26315789,1.68918919 C1.15,1.68918919 1.03684211,1.8018018 1.03684211,1.91441441 C1.03684211,2.13963964 1.37631579,2.13963964 1.37631579,1.91441441 C1.48947368,1.8018018 1.37631579,1.68918919 1.26315789,1.68918919 Z" id="XMLID_24782_"></path>
                                </g>
                                <g id="XMLID_24776_" transform="translate(109.062309, 68.456615)">
                                    <ellipse id="XMLID_24778_" cx="1.47105263" cy="2.02702703" rx="1.13157895" ry="1.12612613"></ellipse>
                                    <ellipse id="XMLID_24777_" cx="1.47105263" cy="2.02702703" rx="1.24473684" ry="1.23873874"></ellipse>
                                </g>
                                <g id="XMLID_24773_" transform="translate(91.577589, 15.484234)">
                                    <ellipse id="XMLID_24775_" cx="2.03684211" cy="1.57657658" rx="1.13157895" ry="1.12612613"></ellipse>
                                    <ellipse id="XMLID_24774_" cx="2.03684211" cy="1.57657658" rx="1.13157895" ry="1.12612613"></ellipse>
                                </g>
                            </g>
                        </g>
                    </g>
                </g>
            </g>
        </g>
    </g>
</svg>