<?xml version="1.0" encoding="UTF-8" standalone="no"?>
<svg width="386px" height="1345px" viewBox="0 0 386 1345" version="1.1" xmlns="http://www.w3.org/2000/svg" xmlns:xlink="http://www.w3.org/1999/xlink">
    <!-- Generator: Sketch 46.2 (44496) - http://www.bohemiancoding.com/sketch -->
    <title>Pillar A + XMLID_99_ + Dandelions + Shape Mask</title>
    <desc>Created with Sketch.</desc>
    <defs>
        <rect id="path-1" x="0" y="0" width="393" height="1365"></rect>
        <linearGradient x1="48.6341208%" y1="-0.34905744%" x2="51.3654808%" y2="100.333235%" id="linearGradient-3">
            <stop stop-color="#6D4059" offset="0%"></stop>
            <stop stop-color="#A14B5E" offset="49.89%"></stop>
            <stop stop-color="#E86365" stop-opacity="0.6" offset="97.43%"></stop>
        </linearGradient>
        <linearGradient x1="48.588937%" y1="-0.328348968%" x2="51.4109062%" y2="100.329792%" id="linearGradient-4">
            <stop stop-color="#6D4059" offset="0%"></stop>
            <stop stop-color="#A14B5E" offset="49.89%"></stop>
            <stop stop-color="#E86365" stop-opacity="0.6" offset="97.43%"></stop>
        </linearGradient>
        <linearGradient x1="48.5407734%" y1="-0.307603055%" x2="51.4596118%" y2="100.326361%" id="linearGradient-5">
            <stop stop-color="#6D4059" offset="0%"></stop>
            <stop stop-color="#A14B5E" offset="49.89%"></stop>
            <stop stop-color="#E86365" stop-opacity="0.6" offset="97.43%"></stop>
        </linearGradient>
        <linearGradient x1="48.4893754%" y1="-0.286972291%" x2="51.5119262%" y2="100.322926%" id="linearGradient-6">
            <stop stop-color="#6D4059" offset="0%"></stop>
            <stop stop-color="#A14B5E" offset="49.89%"></stop>
            <stop stop-color="#E86365" stop-opacity="0.6" offset="97.43%"></stop>
        </linearGradient>
        <linearGradient x1="48.4339752%" y1="-0.266246254%" x2="51.567875%" y2="100.319493%" id="linearGradient-7">
            <stop stop-color="#6D4059" offset="0%"></stop>
            <stop stop-color="#A14B5E" offset="49.89%"></stop>
            <stop stop-color="#E86365" stop-opacity="0.6" offset="97.43%"></stop>
        </linearGradient>
        <linearGradient x1="48.3741932%" y1="-0.245582714%" x2="51.6280216%" y2="100.316067%" id="linearGradient-8">
            <stop stop-color="#6D4059" offset="0%"></stop>
            <stop stop-color="#A14B5E" offset="49.89%"></stop>
            <stop stop-color="#E86365" stop-opacity="0.6" offset="97.43%"></stop>
        </linearGradient>
        <linearGradient x1="48.3098036%" y1="-0.224929071%" x2="51.6930398%" y2="100.312638%" id="linearGradient-9">
            <stop stop-color="#6D4059" offset="0%"></stop>
            <stop stop-color="#A14B5E" offset="49.89%"></stop>
            <stop stop-color="#E86365" stop-opacity="0.6" offset="97.43%"></stop>
        </linearGradient>
    </defs>
    <g id="RSVP" stroke="none" stroke-width="1" fill="none" fill-rule="evenodd">
        <g id="Pillar-A-+-XMLID_99_-+-Dandelions-+-Shape-Mask" transform="translate(0.000000, -2.000000)">
            <mask id="mask-2" fill="white">
                <use xlink:href="#path-1"></use>
            </mask>
            <g id="Mask"></g>
            <g id="Pillar-A" mask="url(#mask-2)" fill-rule="nonzero">
                <g transform="translate(187.000000, 674.500000) rotate(-180.000000) translate(-187.000000, -674.500000) translate(-0.000000, 2.000000)" id="Shape">
                    <path d="M0.938274578,1345 L3.74926459,1345 L5.92354597,283.900453 C5.92354597,134.539213 138.666225,102.256941 245.32643,76.3178937 C279.642996,67.9727756 312.056521,60.0901982 335.283029,49.1282488 C361.39291,36.8060819 373.553955,21.7775166 373.553955,1.83345288 L370.742965,1.83345288 C370.742965,20.6465643 359.07806,34.9131404 334.034247,46.7333302 C311.073378,57.5696182 278.798996,65.418775 244.630709,73.7284674 C191.442562,86.6635677 131.15807,101.324507 84.1203689,131.644991 C29.6103533,166.780713 3.11255596,216.584726 3.11255596,283.900453 L0.938274578,1345 Z" fill="url(#linearGradient-3)"></path>
                    <path d="M12.8779547,1345 L15.6889447,1345 L17.863226,286.281334 C17.863226,142.557478 145.437899,107.502635 247.945569,79.3357719 C281.537603,70.1056768 313.267355,61.3869166 336.051132,49.8113654 C361.666279,36.7973925 373.596823,21.4553423 373.596823,1.5279888 L370.785833,1.5279888 C370.785833,20.361821 359.328238,34.9545819 334.727156,47.4532094 C312.204098,58.8964151 280.612084,67.5770759 247.166222,76.7670663 C195.944362,90.8418083 137.88758,106.794118 92.736756,137.370605 C40.462883,172.76968 15.052236,221.479503 15.052236,286.281334 L12.8779547,1345 Z" fill="url(#linearGradient-4)"></path>
                    <path d="M24.816932,1345 L27.627922,1345 L29.8022034,288.662216 C29.8022034,150.555691 152.227846,112.791775 250.598441,82.447896 C283.456806,72.3121033 314.49365,62.7384447 336.828371,50.5312446 C361.941756,36.8047451 373.638988,21.13651 373.638988,1.22185631 L370.827998,1.22185631 C370.827998,20.0804197 359.579119,35.0120653 335.427795,48.212525 C313.348171,60.2806955 282.446958,69.8129125 249.731954,79.9045901 C150.49487,110.515834 26.9912134,148.612618 26.9912134,288.662216 L24.816932,1345 Z" fill="url(#linearGradient-5)"></path>
                    <path d="M39.5668993,1345 L41.7411807,291.043767 C41.7411807,232.119947 64.6451273,186.319051 111.762239,151.023579 C152.809721,120.274642 206.191124,101.885972 253.288559,85.6616188 C317.889326,63.4075247 373.68045,44.1886874 373.68045,0.917060644 L370.86946,0.917060644 C370.86946,19.8057026 359.83281,35.089601 336.13757,49.0166241 C314.505596,61.7298117 284.30432,72.1336374 252.330011,83.1483913 C157.253896,115.900557 38.9294879,156.660962 38.9294879,291.044435 L36.7552066,1345 L39.5668993,1345 Z" fill="url(#linearGradient-6)"></path>
                    <path d="M51.5058766,1345 L53.680158,293.424649 C53.680158,236.963925 75.5341999,192.27794 120.490363,156.811354 C159.695944,125.881947 210.867206,106.279441 256.015219,88.9842926 C319.176056,64.7891314 373.723318,43.8939179 373.723318,0.610928155 L370.912327,0.610928155 C370.912327,19.5349959 360.091421,35.1865207 336.857886,49.8655067 C315.681293,63.2457691 286.189089,74.5432611 254.965314,86.5044857 C209.626856,103.872491 158.238445,123.55788 118.695546,154.753315 C73.0549067,190.759309 50.8684653,236.119053 50.8684653,293.424649 L48.6941839,1345 L51.5058766,1345 Z" fill="url(#linearGradient-7)"></path>
                    <path d="M60.633864,1345 L63.444854,1345 L65.6191353,295.805531 C65.6191353,241.799214 86.4295971,198.238834 129.240975,162.635893 C166.615898,131.553419 215.581939,110.765151 258.784747,92.4239384 C320.481761,66.2315635 373.765482,43.6105115 373.765482,0.305464077 L370.954492,0.305464077 C370.954492,41.8759835 318.442388,64.1688454 257.638566,89.9828994 C214.255151,108.40098 165.083206,129.276141 127.390641,160.623305 C83.933438,196.764318 62.8081453,240.983084 62.8081453,295.805531 L60.633864,1345 Z" fill="url(#linearGradient-8)"></path>
                    <path d="M75.3838313,1345 L77.5581127,298.186413 C77.5581127,246.625146 97.3334274,204.204407 138.014075,168.499867 C173.569585,137.293737 220.336026,115.350454 261.59644,95.9905824 C321.807846,67.7388315 373.80835,43.3398048 373.80835,0 L370.99736,0 C370.99736,41.6774653 319.723497,65.7356021 260.353982,93.5923218 C218.922098,113.032403 171.962401,135.06659 136.108224,166.534737 C94.8189968,202.774006 74.7478254,245.837088 74.7478254,298.186413 L72.573544,1345 L75.3838313,1345 Z" fill="url(#linearGradient-9)"></path>
                </g>
            </g>
            <path d="M383.17552,1036 C359.17449,1040.06016 319.403107,1040.57199 294.134899,1036 C291.80622,1039.63845 290.813749,1047.65598 294.134195,1052.73769 C303.360863,1056.06988 358.04537,1057.26885 381.256085,1052.78627 C384.758965,1051.66404 386.897461,1041.52526 383.17552,1036 Z" id="XMLID_99_" fill="#81455B" fill-rule="nonzero" mask="url(#mask-2)"></path>
        </g>
    </g>
</svg>