<?xml version="1.0" encoding="UTF-8" standalone="no"?>
<svg width="90px" height="90px" viewBox="0 0 90 90" version="1.1" xmlns="http://www.w3.org/2000/svg" xmlns:xlink="http://www.w3.org/1999/xlink">
    <!-- Generator: Sketch 46.2 (44496) - http://www.bohemiancoding.com/sketch -->
    <title>Close button</title>
    <desc>Created with Sketch.</desc>
    <defs></defs>
    <g id="Page-1" stroke="none" stroke-width="1" fill="none" fill-rule="evenodd">
        <g id="Close-button">
            <g id="XMLID_158_" transform="translate(14.000000, 16.000000)">
                <g id="XMLID_162_" transform="translate(20.000000, 49.000000)">
                    <g id="XMLID_163_"></g>
                </g>
                <path d="M49.2,12.2 C46.1,5.2 39,0.2 30.8,0.2 C22.6,0.2 15.5,5.1 12.4,12.2 C5.4,15.3 0.4,22.4 0.4,30.6 C0.4,38.8 5.3,45.9 12.4,49 C15.5,56 22.6,61 30.8,61 C39,61 46.1,56.1 49.2,49 C56.2,45.9 61.2,38.8 61.2,30.6 C61.2,22.4 56.3,15.3 49.2,12.2 Z M45.5,45.3 C43.6,51.6 37.7,56.2 30.8,56.2 C23.9,56.2 18,51.6 16.1,45.3 C9.8,43.4 5.2,37.5 5.2,30.6 C5.2,23.7 9.8,17.8 16.1,15.9 C18,9.6 23.9,5 30.8,5 C37.7,5 43.6,9.6 45.5,15.9 C51.8,17.8 56.4,23.7 56.4,30.6 C56.4,37.5 51.8,43.4 45.5,45.3 Z" id="XMLID_159_" fill="#FFB3B3" fill-rule="nonzero"></path>
                <path d="M20.4,19.9 L41.5,41.1" id="XMLID_165_" stroke="#FFB3B3" stroke-width="3" fill="#FFB3B3" fill-rule="nonzero"></path>
                <path d="M41.5,19.9 L20.4,41.1" id="XMLID_164_" stroke="#FFB3B3" stroke-width="3" fill="#FFB3B3" fill-rule="nonzero"></path>
            </g>
        </g>
    </g>
</svg>