<?xml version="1.0" encoding="UTF-8" standalone="no"?>
<svg width="451px" height="14px" viewBox="0 0 451 14" version="1.1" xmlns="http://www.w3.org/2000/svg" xmlns:xlink="http://www.w3.org/1999/xlink">
    <!-- Generator: Sketch 46.2 (44496) - http://www.bohemiancoding.com/sketch -->
    <title>Division Copy</title>
    <desc>Created with Sketch.</desc>
    <defs>
        <linearGradient x1="99.2488361%" y1="50%" x2="0%" y2="50%" id="linearGradient-1">
            <stop stop-color="#F6A792" offset="0%"></stop>
            <stop stop-color="#F97B7B" stop-opacity="0.648975317" offset="78.2931106%"></stop>
            <stop stop-color="#B5505F" stop-opacity="0" offset="100%"></stop>
        </linearGradient>
    </defs>
    <g id="E-vite-+-Itenerary" stroke="none" stroke-width="1" fill="none" fill-rule="evenodd">
        <g id="Division-Copy" transform="translate(-5.000000, 0.000000)">
            <path d="M5,7 L216.00237,7" id="XMLID_7935_" stroke="url(#linearGradient-1)" stroke-width="4" stroke-linecap="round"></path>
            <path d="M244,7 L455.00237,7" id="XMLID_7935_" stroke="url(#linearGradient-1)" stroke-width="4" stroke-linecap="round" transform="translate(350.000000, 6.500000) scale(-1, 1) translate(-350.000000, -6.500000) "></path>
            <path d="M231.000713,14 C230.051645,12.6467712 228.78741,11.5138521 227.28359,10.7167448 C226.486401,9.21307802 225.351941,7.94754532 224,7 C225.351941,6.05245468 226.486401,4.78692198 227.28359,3.28325525 C228.78741,2.48614789 230.051645,1.35322876 231.000713,0 C231.948355,1.35322876 233.21259,2.48614789 234.71641,3.28325525 C235.513599,4.78692198 236.648059,6.05245468 238,7 C236.648059,7.94754532 235.513599,9.21307802 234.71641,10.7167448 C233.21259,11.5145651 231.948355,12.6467712 231.000713,14 Z" id="XMLID_7884_" fill="#F6A792" fill-rule="nonzero"></path>
        </g>
    </g>
</svg>